<?xml version="1.0" ?><svg enable-background="new 0 0 512 512" id="Layer_1" version="1.1" viewBox="0 0 512 512" xml:space="preserve" xmlns="http://www.w3.org/2000/svg" xmlns:xlink="http://www.w3.org/1999/xlink"><path d="M373.918,471.706c0-8.933-42.637-16.172-95.235-16.172c-52.598,0-95.237,7.24-95.237,16.172  c0,2.927,4.602,5.67,12.606,8.037c-2.584,1.963,40.819,10.092,94.371,8.009C343.973,485.671,373.918,479.966,373.918,471.706z" fill="#3E3E3E" opacity="0.32"/><g><g><g><path d="M277.878,465.159c-6.964,0-9.344-5.631-9.344-12.598V333.819c0-6.964,2.38-12.6,9.344-12.6     c6.949,0,9.324,5.636,9.324,12.6v118.742C287.202,459.528,284.827,465.159,277.878,465.159z" fill="#46883F"/></g></g><path d="M233.72,185.486c0-78.141,44.987-141.496,44.987-141.496s44.978,63.355,44.978,141.496   S278.707,327,278.707,327S233.72,263.627,233.72,185.486z" fill="#4F9D45"/><path d="M278.734,69.313c11.059,67.603,11.105,100.201-0.062,167.786   C267.55,169.496,267.642,136.915,278.734,69.313z" fill="#46883F"/><g><g><path d="M166.656,284.409c-59.327-50.862-78.144-126.25-78.144-126.25s77.377,7.091,136.704,57.955     c59.324,50.868,78.141,126.254,78.141,126.254S225.982,335.277,166.656,284.409z" fill="#4F9D45"/><path d="M107.703,174.692c58.513,35.608,114.813,83.848,158.852,136.319     C208.005,275.44,151.787,227.127,107.703,174.692z" fill="#46883F"/></g><g><path d="M390.749,284.409c59.327-50.862,58.954-131.203,58.954-131.203s-58.187,12.044-117.523,62.909     c-59.307,50.868-78.132,126.254-78.132,126.254S331.425,335.277,390.749,284.409z" fill="#4F9D45"/><path d="M449.703,174.692C405.62,227.127,349.401,275.44,290.849,311.011     C334.889,258.54,391.189,210.3,449.703,174.692z" fill="#46883F"/></g></g><g><g><path d="M367.86,355.076c47.212,40.475,62.172,100.457,62.172,100.457s-61.57-5.651-108.771-46.126     c-47.201-40.477-62.17-100.458-62.17-100.458S320.649,314.582,367.86,355.076z" fill="#4F9D45"/><path d="M414.762,442.371c-47.203-26.453-65.515-42.991-98.77-85.67     C363.249,383.082,381.462,399.708,414.762,442.371z" fill="#46883F"/></g><g><path d="M189.554,355.076c-47.212,40.475-62.178,100.457-62.178,100.457s61.558-5.651,108.76-46.126     c47.21-40.477,62.191-100.458,62.191-100.458S236.757,314.582,189.554,355.076z" fill="#4F9D45"/><path d="M142.643,442.371c33.302-42.663,44.804-52.288,92.052-78.671     C201.442,406.379,189.855,415.917,142.643,442.371z" fill="#46883F"/></g></g></g><g><path d="M329.524,320.259c0,0,31.904,10.602,38.16-15.969C367.684,304.29,355.798,317.13,329.524,320.259" fill="#F7CE80"/><path d="M331.82,253.016c10.288-7.317,42.31,26.601,40.436,37.236c-1.878,10.635-26.065,26.237-38.243,21.141   C321.836,306.297,323.485,258.944,331.82,253.016" fill="#FAAD66"/><path d="M351.996,347.815c1.77,0,2.301-2.315,0.875-3.225c-0.551-0.351-1.197-0.351-1.748,0   C349.698,345.499,350.229,347.815,351.996,347.815" fill="#FCBA72"/><path d="M336.669,296.684c0.11,0.567,0.308,1.118,0.545,1.657c0.161,0.949,0.471,1.889,0.85,2.731   c0.67,1.486,1.87,2.847,3.31,3.948c1.026,1.387,2.438,2.481,4.13,3.097c2.95,1.074,7.214-0.515,8.759-3.244   c1.159-2.053,0.635-4.204-0.48-6.042c0.18,0.017,0.365,0.019,0.559-0.002c1.09-0.114,2.011-0.829,2.011-2.009   c0-1.18-0.921-1.895-2.011-2.009c-0.627-0.066-1.166,0.071-1.649,0.436c-0.085,0.055-0.159,0.119-0.234,0.186   c-0.011,0.009-0.024,0.016-0.033,0.028c0.005-0.005,0.011-0.008,0.011-0.008c-0.297,0.279-0.483,0.633-0.553,1.014   c-1.278-1.248-3.023-2.494-4.907-3.353c-1.42-1.011-2.968-1.777-4.525-2.105C338.613,290.201,335.924,292.892,336.669,296.684" fill="#FCBA72"/><path d="M221.16,314.824c0,0-7.311,2.968-10.125,11.306c-2.813,8.339-2.407,30.983-2.407,30.983   s-2.077-19.922,1.069-31.256C212.845,314.522,221.16,314.824,221.16,314.824" fill="#274820"/><path d="M225.745,310.189c7.841,0.913,13.33,1.368,12.567-1.036c0,0-1.369-4.542-5.297-3.887   c0,0-3.244-3.888-9.795-0.548c0,0-6.336-2.998-7.619,1.461C214.84,308.824,220.876,309.623,225.745,310.189" fill="#B0D797"/><path d="M164.323,378.45l-26.754-28.692l-26.836,21.829l-13.825-25.662l-37.485,38.709   c0,0,2.462-96.26,4.338-108.771c1.878-12.513,7.508-61.314,8.134-70.07c0.625-8.754-23.147-99.463-29.402-108.22   c0,0,88.207-52.549,104.472-64.435c0,0,21.649,35.033,39.602,138.878C204.517,275.864,164.323,378.45,164.323,378.45" fill="#A97D4C"/><path d="M448.181,354.04l-27.212-20.834l-21.114,32.92c0,0-27.247-23.041-41.555-27.635   c0,0-16.803,20.56-21.64,24.867c0,0-20.544-22.606-24.656-24.867c0,0-30.828,29.227-37.291,31.549c0,0-24.799-19.047-30.626-21.33   c0,0-18.903,21.998-20.478,24.232c0,0-18.176-21.291-22.074-24.543c0,0-34.721,28.581-37.211,30.053   c0,0-0.079-93.204,2.229-113.849c2.307-20.643,8.192-83.826,8.064-88.831c-0.126-5.005-13.265-117.609-27.651-142.632   c0,0,285.888,17.516,327.802,23.147c0,0-12.883,65.604-25.021,110.101C441.457,196.762,448.181,354.04,448.181,354.04" fill="#DCA67A"/><g><defs><path d="M201.534,348.397c3.898,3.252,22.074,24.544,22.074,24.544c1.575-2.235,20.478-24.233,20.478-24.233     c5.828,2.284,30.626,21.33,30.626,21.33c6.463-2.32,37.291-31.549,37.291-31.549c4.113,2.26,24.656,24.867,24.656,24.867     c4.837-4.307,21.64-24.867,21.64-24.867c14.309,4.594,41.555,27.635,41.555,27.635l21.112-32.92l27.213,20.833     c0,0-6.723-157.277,1.565-187.652c12.139-44.498,25.021-110.103,25.021-110.103c-41.914-5.629-327.802-23.147-327.802-23.147     c14.386,25.024,27.525,137.629,27.653,142.634c0.126,5.005-5.758,68.189-8.066,88.831c-2.307,20.645-2.229,113.849-2.229,113.849     C166.812,376.978,201.534,348.397,201.534,348.397" id="SVGID_8_"/></defs><clipPath id="SVGID_1_"><use overflow="visible" xlink:href="#SVGID_8_"/></clipPath><path clip-path="url(#SVGID_1_)" d="M448.181,354.04c0,0-20.795-120.098-44.022-148.247    c-23.227-28.147-57.71-37.529-57.71-37.529s46.65-3.754,48.699-8.759c2.048-5.005-57.726-43.166-80.702-40.663    c-22.973,2.502-106.233,60.681-113.085,70.065c-6.853,9.383,110.693,9.377,123.862,16.886    c13.168,7.511-98.875,32.272-116.671,49.919c-17.796,17.646-44.228,122.737-44.228,122.737S417.215,459.742,448.181,354.04" fill="#EAB083"/></g><path d="M336.66,173.267c0,0-48.542,13.137-68.448,15.64c-19.904,2.502-47.506,0-47.506,0   s40.418-8.759,57.156-11.261C294.601,175.145,336.66,173.267,336.66,173.267" fill="#BF9766"/><path d="M438.483,173.267c0,0-30.963-31.279-56.143-43.79c-25.181-12.511-47.285-20.02-47.285-20.02   s40.661,8.132,51.714,13.137C397.822,127.6,438.483,173.267,438.483,173.267" fill="#AD8A5C"/></g><circle cx="373.968" cy="181.731" fill="#FFFFFF" r="72.843"/><circle cx="239.118" cy="181.731" fill="#FFFFFF" r="72.843"/><path d="M183.601,182.897c0-12.933,10.479-23.423,23.41-23.423c12.952,0,23.428,10.49,23.428,23.423  c0,12.944-10.476,23.433-23.428,23.433C194.079,206.329,183.601,195.841,183.601,182.897z" fill="#3F2945"/><path d="M325.917,182.897c0-12.933,10.479-23.423,23.41-23.423c12.952,0,23.428,10.49,23.428,23.423  c0,12.944-10.476,23.433-23.428,23.433C336.396,206.329,325.917,195.841,325.917,182.897z" fill="#3F2945"/><g><g><path d="M408.25,100.326c-1.379-0.562-2.514-1.69-3.039-3.208c-0.267-0.79-6.597-18.391-26.787-19.244    c-2.909-0.112-5.158-2.574-5.038-5.477c0.114-2.912,2.574-5.168,5.475-5.046c27.583,1.153,36.002,25.369,36.348,26.397    c0.913,2.775-0.578,5.757-3.332,6.677C410.643,100.835,409.367,100.767,408.25,100.326z" fill="#3F2945"/></g></g><g><g><path d="M229.25,82.06c-1.257,0.802-2.832,1.075-4.373,0.627c-0.798-0.237-18.824-5.239-31.179,10.749    c-1.777,2.311-5.084,2.724-7.385,0.951c-2.311-1.777-2.729-5.087-0.952-7.386c16.872-21.848,41.502-14.734,42.541-14.421    c2.792,0.857,4.365,3.797,3.525,6.576C231.05,80.4,230.256,81.403,229.25,82.06z" fill="#3F2945"/></g></g></svg>