<?xml version="1.0" encoding="UTF-8" standalone="no"?>
<!DOCTYPE svg PUBLIC "-//W3C//DTD SVG 1.1//EN" "http://www.w3.org/Graphics/SVG/1.1/DTD/svg11.dtd">
<svg viewBox="0 0 2072 506" xmlns:xlink="http://www.w3.org/1999/xlink" height="506.0pt" width="2072.0pt" xmlns="http://www.w3.org/2000/svg" version="1.1"><defs>
<path d="M 0.00 0.00 L 2072.00 0.00 L 2072.00 506.00 L 0.00 506.00 L 0.00 0.00 Z" id="p0" />
<path d="M 1753.00 87.35 C 1763.58 87.09 1773.66 89.05 1784.03 90.87 C 1803.50 95.11 1822.12 103.02 1838.53 114.35 C 1870.25 135.80 1894.42 167.71 1907.89 203.44 C 1914.21 219.00 1917.35 235.34 1919.15 251.97 C 1920.10 264.63 1919.40 277.17 1916.93 289.63 C 1914.88 302.80 1910.50 315.25 1905.11 327.39 C 1902.13 333.83 1898.39 339.86 1895.07 346.16 C 1888.36 357.41 1880.14 367.81 1871.76 377.86 C 1855.20 395.89 1837.36 412.35 1817.03 426.09 C 1797.91 439.79 1776.48 450.45 1754.30 458.23 C 1751.47 459.34 1748.67 460.19 1745.69 460.83 C 1745.46 450.44 1745.73 440.05 1745.62 429.66 C 1741.49 428.00 1737.54 428.43 1732.96 427.78 C 1723.10 426.87 1713.72 424.38 1704.18 421.83 C 1674.80 412.99 1648.26 396.10 1627.24 373.82 C 1618.94 364.57 1611.48 354.72 1604.94 344.15 C 1595.26 327.61 1588.16 309.65 1584.43 290.83 C 1583.02 281.95 1581.32 272.90 1581.40 264.00 C 1581.42 257.12 1581.22 250.19 1581.77 243.33 C 1582.55 236.42 1583.57 229.49 1584.87 222.65 C 1591.91 189.89 1608.96 159.32 1633.03 136.01 C 1644.60 124.38 1657.81 115.23 1672.01 107.13 C 1684.90 100.06 1698.92 94.99 1713.17 91.50 C 1726.34 88.85 1739.53 86.87 1753.00 87.35 Z" id="p1" />
<path d="M 1751.51 144.33 C 1764.90 163.60 1773.84 185.71 1776.60 209.07 C 1778.12 220.13 1777.44 231.78 1777.21 242.93 C 1780.38 239.82 1783.25 236.45 1786.27 233.20 C 1798.14 221.37 1812.09 211.80 1827.87 205.97 C 1833.41 204.04 1838.24 201.71 1844.21 201.41 C 1845.05 211.17 1843.53 221.14 1839.97 230.25 C 1836.20 240.53 1829.58 249.51 1823.47 258.59 C 1819.19 264.88 1813.96 270.30 1808.54 275.60 C 1807.94 276.39 1805.74 278.07 1806.62 279.17 C 1809.65 279.76 1812.92 279.43 1816.01 279.73 C 1835.22 281.71 1854.01 285.40 1871.94 292.77 C 1870.78 295.88 1866.80 297.49 1864.23 299.39 C 1844.10 312.95 1820.04 320.66 1795.83 321.80 C 1796.99 324.33 1798.45 326.67 1799.94 329.01 C 1803.91 335.40 1806.09 342.80 1805.39 350.36 C 1789.41 350.68 1773.31 344.41 1762.38 332.62 C 1758.30 328.61 1755.56 323.81 1752.29 319.18 C 1749.20 323.85 1746.64 328.63 1742.61 332.61 C 1731.96 344.36 1715.47 351.28 1699.64 350.43 C 1699.51 346.03 1699.87 341.69 1701.31 337.51 C 1703.08 332.03 1706.13 327.55 1708.96 322.61 C 1703.93 321.26 1698.87 321.69 1693.79 320.87 C 1671.53 317.20 1650.30 308.63 1632.45 294.70 C 1633.71 293.90 1634.95 293.10 1636.33 292.53 C 1643.89 289.58 1651.65 287.27 1659.49 285.18 C 1672.44 281.88 1685.44 280.81 1698.68 279.52 C 1693.45 273.58 1687.73 268.37 1682.94 262.04 C 1678.59 256.30 1674.41 250.38 1670.68 244.22 C 1666.59 237.13 1662.48 229.41 1660.88 221.33 C 1659.40 215.04 1659.03 208.63 1659.46 202.19 C 1664.32 202.39 1668.59 204.16 1673.11 205.74 C 1686.90 210.45 1699.75 217.77 1710.90 227.15 C 1716.57 232.11 1721.56 237.71 1726.73 242.98 C 1726.46 233.02 1726.01 222.91 1726.63 212.95 C 1727.20 207.58 1727.95 202.10 1728.91 196.79 C 1731.93 181.44 1737.81 167.00 1745.51 153.42 C 1747.38 150.23 1749.06 147.13 1751.51 144.33 Z" id="p2" />
<path d="M 172.72 149.59 C 189.45 152.01 205.48 156.76 219.60 166.30 C 236.59 176.87 249.32 194.18 254.58 213.46 C 259.24 231.10 257.99 250.38 254.90 268.19 C 252.71 279.77 250.02 291.61 245.59 302.55 C 240.35 315.92 232.91 328.61 223.34 339.35 C 211.01 353.36 192.78 361.83 173.99 360.82 C 165.86 360.37 157.81 356.74 152.39 350.61 C 147.74 345.46 145.80 337.92 147.00 331.15 C 149.03 319.93 159.52 311.05 171.04 311.55 C 179.04 311.81 184.89 316.68 190.73 321.54 C 199.55 312.67 205.41 300.61 208.33 288.54 C 211.54 275.63 213.49 262.33 213.78 249.03 C 214.72 240.98 214.17 233.01 213.05 225.02 C 211.53 215.93 207.54 206.62 200.98 200.02 C 195.59 194.56 188.60 190.67 181.18 188.80 C 164.12 184.32 145.37 186.15 129.27 193.26 C 113.68 199.90 100.59 212.55 92.37 227.27 C 81.97 245.93 78.33 266.81 78.87 288.00 C 79.57 301.41 82.66 314.53 90.17 325.82 C 95.60 334.07 102.56 340.64 110.23 346.76 C 118.07 352.59 127.12 357.00 136.02 360.97 C 153.31 368.63 170.62 373.26 188.62 379.38 C 201.93 383.96 215.87 387.76 228.05 394.93 C 235.40 399.00 242.63 404.79 246.81 412.19 C 253.29 424.21 250.41 439.87 242.63 450.62 C 233.63 463.14 219.13 471.80 204.73 476.69 C 192.40 481.04 179.18 482.24 166.20 483.06 C 161.20 483.43 156.19 483.44 151.20 482.82 C 139.47 481.54 126.93 480.25 115.73 476.40 C 96.36 469.72 77.02 459.21 63.55 443.46 C 60.40 439.69 56.87 435.29 55.51 430.51 C 53.00 422.66 58.72 412.83 66.98 411.66 C 73.24 411.35 78.20 416.67 82.48 420.52 C 102.36 438.07 128.94 445.89 155.00 447.39 C 166.12 447.53 177.47 446.25 188.15 443.09 C 194.46 441.39 201.36 438.73 206.21 434.20 C 208.39 432.06 210.49 429.67 209.73 426.37 C 208.32 423.72 204.55 422.18 201.88 421.11 C 187.41 415.83 171.97 412.16 157.32 407.48 C 143.62 403.45 130.17 398.57 117.04 392.96 C 106.29 388.34 96.21 382.79 86.14 376.86 C 77.36 371.58 69.18 365.26 61.49 358.50 C 49.52 347.92 40.59 333.80 35.19 318.82 C 31.17 307.10 29.83 294.35 30.33 282.01 C 30.95 260.91 34.96 240.26 44.10 221.15 C 57.58 191.14 83.48 167.41 114.49 156.48 C 132.91 149.79 153.24 146.97 172.72 149.59 Z" id="p3" />
<path d="M 759.02 186.92 C 764.77 187.41 771.24 189.38 775.29 193.70 C 779.01 197.53 780.89 202.62 780.78 207.94 C 780.73 219.32 778.28 230.67 777.35 242.01 C 776.20 256.67 775.39 271.30 775.21 286.00 C 774.61 295.01 774.41 304.06 774.56 313.08 C 777.67 310.67 780.61 308.05 783.88 305.88 C 791.58 300.87 800.40 298.11 809.51 297.22 C 823.35 295.44 837.51 298.27 849.43 305.57 C 859.69 312.15 868.90 321.61 872.59 333.47 C 875.05 340.47 875.03 347.55 874.48 354.87 C 873.03 370.36 866.11 385.14 855.38 396.37 C 852.43 399.41 848.93 401.82 845.89 404.77 C 850.79 411.48 856.26 418.00 862.00 424.00 C 867.67 429.73 875.07 435.41 883.32 436.32 C 890.33 436.89 897.61 433.44 901.78 427.78 C 906.87 421.15 909.18 411.93 910.89 403.87 C 912.50 396.30 910.02 389.67 910.74 382.00 C 911.10 378.00 911.34 374.01 911.55 370.00 C 913.10 354.78 917.70 340.01 926.18 327.19 C 935.51 312.88 950.06 302.20 966.52 297.64 C 976.11 295.01 986.30 293.95 996.19 295.17 C 1010.46 296.07 1026.06 301.29 1034.91 313.15 C 1041.57 322.00 1042.88 333.75 1041.16 344.43 C 1038.55 358.22 1030.91 369.39 1021.28 379.28 C 1006.98 392.83 988.87 401.87 969.61 405.82 C 965.11 406.70 960.50 406.83 955.99 407.72 C 959.51 421.75 970.37 432.35 983.61 437.55 C 992.32 440.79 1001.71 441.98 1010.94 440.80 C 1027.65 438.53 1043.37 430.21 1053.92 416.93 C 1063.32 405.11 1068.88 389.98 1071.37 375.20 C 1072.67 368.20 1072.30 361.12 1073.31 354.11 C 1073.74 351.13 1075.31 348.53 1077.47 346.48 C 1082.48 341.14 1092.59 340.95 1097.58 346.41 C 1100.21 348.96 1101.80 352.25 1101.80 355.95 C 1102.42 380.74 1096.83 406.13 1084.93 427.95 C 1076.34 443.46 1064.31 456.88 1049.01 466.01 C 1034.78 474.86 1017.74 479.32 1001.00 478.75 C 988.37 479.19 975.59 476.53 963.79 472.16 C 956.26 468.93 948.98 464.56 942.62 459.38 C 937.99 455.70 933.95 450.94 929.81 446.64 C 926.50 450.89 924.12 455.46 920.34 459.35 C 915.48 464.62 909.27 468.21 902.50 470.45 C 895.06 473.32 886.11 472.96 878.28 472.36 C 867.31 470.81 856.74 464.60 848.14 457.84 C 834.34 446.14 823.58 430.58 812.73 416.23 C 811.63 414.58 809.60 414.75 807.85 414.35 C 802.36 413.73 796.37 411.60 792.60 407.39 C 788.10 401.98 786.55 394.03 788.25 387.26 C 790.03 380.11 795.94 374.28 803.45 373.64 C 811.58 372.20 818.07 375.83 824.22 380.69 C 831.26 375.94 835.84 367.96 837.94 359.88 C 840.54 348.83 835.75 336.64 825.18 331.81 C 815.41 327.50 802.17 328.67 794.23 336.23 C 785.99 343.35 781.62 354.98 779.15 365.31 C 775.84 378.91 774.36 393.02 774.30 407.00 C 774.20 416.44 773.94 425.66 775.35 435.03 C 776.24 443.55 778.40 452.67 774.93 460.88 C 770.06 473.79 750.23 476.35 740.97 467.01 C 736.89 462.82 736.28 455.55 735.83 450.02 C 735.57 438.12 735.83 426.19 735.71 414.28 C 727.10 417.81 718.38 420.32 708.99 420.25 C 705.35 420.09 701.74 419.52 698.12 419.19 C 695.29 424.26 694.10 429.95 691.04 434.94 C 683.27 449.90 671.82 463.47 655.84 469.90 C 639.93 476.04 621.65 473.86 605.99 467.98 C 594.43 463.13 584.88 454.98 576.69 445.62 C 573.66 449.37 571.25 453.51 567.97 456.96 C 563.48 461.70 558.07 465.55 552.03 468.04 C 540.23 472.97 527.35 473.60 514.79 472.02 C 505.44 470.19 495.46 467.12 487.96 461.05 C 474.82 451.19 467.25 435.22 464.87 419.24 C 461.46 397.07 466.16 372.49 465.82 350.99 C 465.76 346.29 465.20 341.76 461.68 338.32 C 458.29 335.17 453.63 334.96 449.25 335.39 C 444.54 336.01 440.78 339.37 438.14 343.13 C 432.19 351.89 429.57 362.10 427.28 372.30 C 422.26 396.47 423.31 419.55 423.92 444.00 C 424.79 451.72 423.95 459.57 418.55 465.56 C 413.72 471.25 404.97 472.44 398.01 471.24 C 389.62 469.73 382.76 462.81 381.37 454.40 C 380.14 448.45 381.34 443.12 381.88 437.10 C 384.90 413.59 384.78 390.66 384.92 367.00 C 384.87 359.74 384.83 351.18 381.43 344.58 C 378.65 338.90 371.07 336.93 365.56 339.62 C 360.80 341.77 357.60 346.65 354.94 350.95 C 351.28 357.25 348.01 363.97 346.00 370.99 C 339.86 391.33 337.03 412.81 336.28 434.01 C 335.97 441.14 336.73 449.28 334.94 456.19 C 333.31 462.06 329.52 466.54 323.86 468.87 C 315.63 471.76 306.02 470.66 299.59 464.41 C 295.18 460.16 292.95 454.14 293.25 448.05 C 293.61 415.99 294.79 384.11 294.30 351.99 C 293.86 343.82 293.06 334.88 289.77 327.28 C 288.16 323.38 284.93 320.50 283.19 316.73 C 280.69 309.04 285.40 299.80 292.76 296.71 C 298.03 294.76 304.00 294.38 309.15 296.92 C 313.79 299.24 317.81 302.89 320.95 307.00 C 327.57 316.18 330.90 326.46 333.39 337.38 C 338.93 324.68 345.86 313.35 357.79 305.75 C 365.42 300.73 374.74 299.17 383.69 300.55 C 390.87 302.14 397.96 306.73 402.35 312.63 C 407.31 319.41 410.30 327.43 411.06 335.79 C 414.49 327.97 419.89 320.94 426.05 315.07 C 433.85 307.21 443.87 301.90 454.96 300.76 C 463.99 299.93 473.66 300.57 482.19 303.88 C 490.14 306.75 496.91 313.21 499.79 321.21 C 503.07 329.74 502.63 339.05 501.89 347.99 C 501.03 364.77 499.08 381.12 499.51 398.03 C 499.73 403.52 501.06 409.00 502.87 414.17 C 505.20 420.17 509.57 425.53 514.86 429.18 C 521.86 433.82 530.37 434.16 538.32 432.15 C 545.54 430.08 551.11 423.87 554.38 417.34 C 557.52 410.53 560.07 402.57 559.36 394.99 C 558.62 379.73 560.00 364.45 563.83 349.65 C 567.37 337.03 573.56 324.30 583.11 315.12 C 594.36 304.22 610.56 298.59 625.99 297.66 C 640.51 296.37 657.00 298.42 669.42 306.58 C 677.78 312.30 684.57 320.24 688.20 329.76 C 689.38 333.00 691.91 334.48 694.30 336.72 C 699.29 341.07 702.52 347.41 704.37 353.67 C 706.40 360.10 705.73 367.27 705.77 374.04 C 705.87 379.86 704.44 385.44 704.22 391.22 C 715.84 392.21 728.38 386.40 733.87 375.83 C 736.33 371.32 735.65 366.94 735.74 362.00 C 735.70 314.33 735.75 266.67 735.71 219.00 C 735.64 209.72 736.04 200.70 742.29 193.28 C 746.34 188.39 752.82 186.33 759.02 186.92 Z" id="p4" />
<path d="M 1204.54 207.81 C 1215.03 204.33 1226.98 208.83 1232.94 218.00 C 1236.48 223.63 1236.27 231.62 1235.33 237.98 C 1232.93 247.13 1224.77 256.68 1214.83 257.48 C 1209.19 258.20 1203.69 256.24 1199.38 252.64 C 1193.54 247.75 1189.09 240.63 1188.35 232.95 C 1187.95 227.82 1188.77 222.00 1191.61 217.60 C 1194.72 213.11 1199.32 209.51 1204.54 207.81 Z" id="p5" />
<path d="M 1394.73 302.32 C 1404.16 306.30 1412.21 313.64 1417.73 322.19 C 1420.74 326.83 1420.82 331.58 1425.24 334.74 C 1429.94 338.40 1433.26 343.02 1435.63 348.45 C 1439.71 357.33 1439.46 367.38 1438.82 376.92 C 1438.62 381.79 1437.39 386.49 1437.45 391.39 C 1446.28 391.71 1455.32 388.96 1461.79 382.79 C 1466.34 378.68 1468.52 372.91 1470.09 367.14 C 1471.52 361.86 1470.67 355.76 1472.81 350.81 C 1475.36 345.93 1480.43 342.61 1486.00 342.56 C 1493.23 342.15 1499.39 347.95 1500.40 354.93 C 1501.10 362.26 1499.78 370.12 1498.13 377.26 C 1494.64 391.32 1485.90 404.85 1473.08 412.04 C 1464.16 416.92 1454.20 419.80 1444.04 420.26 C 1439.78 420.37 1435.48 419.52 1431.22 419.23 C 1430.19 421.28 1429.26 423.38 1428.45 425.53 C 1424.67 435.79 1418.78 445.35 1411.54 453.53 C 1403.74 462.47 1393.68 469.35 1382.02 472.05 C 1368.81 475.13 1354.74 473.27 1342.00 469.03 C 1335.04 466.79 1328.62 462.58 1322.82 458.18 C 1317.70 454.34 1313.70 449.67 1309.25 445.14 C 1303.83 454.44 1297.12 462.50 1287.15 467.10 C 1273.45 473.69 1258.40 473.87 1243.80 470.44 C 1232.07 468.55 1222.11 462.41 1213.29 454.72 C 1205.48 447.96 1200.19 439.01 1196.49 429.46 C 1192.57 418.81 1190.53 407.36 1190.65 396.00 C 1190.66 371.32 1190.65 346.63 1190.66 321.95 C 1190.92 314.61 1193.18 306.89 1199.54 302.54 C 1205.37 299.26 1212.02 298.62 1218.57 299.57 C 1223.24 300.52 1226.98 303.54 1229.53 307.48 C 1233.61 313.58 1234.42 320.82 1234.02 328.00 C 1233.23 339.95 1233.93 352.08 1232.72 363.96 C 1232.46 370.30 1232.57 376.65 1232.47 383.00 C 1232.53 395.73 1233.94 408.51 1240.07 419.87 C 1243.96 426.70 1250.33 431.22 1258.03 432.76 C 1262.76 434.16 1267.20 432.92 1271.87 431.79 C 1280.49 429.27 1286.11 421.11 1289.02 413.04 C 1290.73 407.48 1292.88 401.81 1292.50 396.03 C 1292.12 384.50 1292.33 373.04 1294.44 361.68 C 1296.97 345.34 1303.45 328.16 1315.19 316.19 C 1324.57 306.58 1336.68 301.39 1349.67 298.75 C 1364.98 296.36 1380.17 296.56 1394.73 302.32 Z" id="p6" />
<path d="M 1003.91 327.03 C 1007.37 329.10 1009.90 332.79 1009.41 336.97 C 1008.88 341.09 1006.80 345.13 1004.64 348.64 C 1000.91 354.32 996.55 359.95 991.21 364.22 C 980.80 372.99 966.85 378.27 953.28 378.69 C 953.95 365.97 958.26 353.16 965.96 342.97 C 971.71 335.26 979.82 329.09 989.01 326.16 C 993.64 324.85 999.69 324.26 1003.91 327.03 Z" id="p7" />
<path d="M 651.36 335.68 C 654.02 337.61 658.54 340.36 656.26 344.17 C 651.88 353.99 651.74 364.29 652.83 374.82 C 654.20 384.46 658.60 393.71 664.90 401.10 C 665.63 402.02 666.47 403.01 666.90 404.11 C 666.71 405.69 666.19 407.25 665.63 408.74 C 661.87 418.04 656.27 426.49 647.21 431.32 C 636.46 437.13 622.34 435.01 613.95 426.05 C 607.50 419.40 604.55 410.95 603.18 401.94 C 601.41 392.44 600.84 382.85 602.43 373.28 C 603.82 362.39 607.65 351.28 614.86 342.85 C 623.74 333.37 639.63 329.36 651.36 335.68 Z" id="p8" />
<path d="M 1382.47 334.60 C 1385.83 335.92 1388.14 338.38 1390.34 341.13 C 1388.71 346.40 1386.50 351.22 1385.90 356.77 C 1384.85 365.70 1385.23 375.30 1388.20 383.85 C 1390.69 391.54 1395.20 397.94 1400.35 404.06 C 1397.29 413.93 1391.79 424.13 1382.90 429.86 C 1373.40 436.32 1360.00 436.12 1350.77 429.24 C 1343.31 423.82 1338.89 414.87 1337.09 406.00 C 1335.23 396.62 1333.75 386.49 1335.08 376.96 C 1336.29 364.49 1340.37 350.51 1349.40 341.40 C 1358.15 333.48 1371.29 330.22 1382.47 334.60 Z" id="p9" />
<path d="M 1128.55 430.93 C 1132.29 430.14 1136.25 430.16 1140.05 430.39 C 1149.30 430.91 1157.03 439.92 1157.30 448.96 C 1157.57 457.76 1152.89 468.05 1143.99 470.90 C 1135.14 473.34 1124.71 470.26 1118.71 463.26 C 1113.53 457.22 1113.52 448.32 1116.14 441.17 C 1118.21 435.79 1123.01 432.18 1128.55 430.93 Z" id="p10" /></defs><g stroke-width="10pt">
<use stroke="#ffffff" xlink:href="#p0" />
<use stroke="#04c300" xlink:href="#p1" />
<use stroke="#ffffff" xlink:href="#p2" />
<use stroke="#262626" xlink:href="#p3" />
<use stroke="#262626" xlink:href="#p4" />
<use stroke="#262626" xlink:href="#p5" />
<use stroke="#262626" xlink:href="#p6" />
<use stroke="#ffffff" xlink:href="#p7" />
<use stroke="#ffffff" xlink:href="#p8" />
<use stroke="#ffffff" xlink:href="#p9" />
<use stroke="#262626" xlink:href="#p10" /></g>
<g>
<use xlink:href="#p0" fill="#ffffff" />
<use xlink:href="#p1" fill="#04c300" />
<use xlink:href="#p2" fill="#ffffff" />
<use xlink:href="#p3" fill="#262626" />
<use xlink:href="#p4" fill="#262626" />
<use xlink:href="#p5" fill="#262626" />
<use xlink:href="#p6" fill="#262626" />
<use xlink:href="#p7" fill="#ffffff" />
<use xlink:href="#p8" fill="#ffffff" />
<use xlink:href="#p9" fill="#ffffff" />
<use xlink:href="#p10" fill="#262626" /></g></svg>
