<?xml version="1.0" encoding="iso-8859-1"?>
<!-- Generator: Adobe Illustrator 19.0.0, SVG Export Plug-In . SVG Version: 6.00 Build 0)  -->
<svg version="1.1" id="Capa_1" xmlns="http://www.w3.org/2000/svg" xmlns:xlink="http://www.w3.org/1999/xlink" x="0px" y="0px"
	 viewBox="0 0 512 512" style="enable-background:new 0 0 512 512;" xml:space="preserve">
<g>
	<polygon style="fill:#FFCD3A;" points="110.933,281.6 68.266,281.6 34.133,349.867 34.133,503.467 187.733,503.467 
		221.866,426.667 221.866,281.6 	"/>
	<polygon style="fill:#FFCD3A;" points="366.933,281.6 324.266,281.6 290.133,349.867 290.133,426.667 290.133,503.467 
		443.733,503.467 477.866,426.667 477.866,281.6 	"/>
	<polygon style="fill:#FFCD3A;" points="68.266,8.533 34.133,76.8 34.133,230.4 110.933,230.4 187.733,230.4 221.866,153.6 
		221.866,8.533 	"/>
	<polygon style="fill:#FFCD3A;" points="324.266,8.533 290.133,76.8 290.133,153.6 290.133,230.4 366.933,230.4 443.733,230.4 
		477.866,153.6 477.866,8.533 	"/>
</g>
<path d="M281.6,145.067h-51.2V8.533l0,0c0.06-4.659-3.669-8.474-8.329-8.533c-0.068,0-0.137,0-0.205,0h-153.6
	c-3.234,0-6.195,1.826-7.637,4.719L26.496,72.986h0.085c-0.623,1.178-0.964,2.483-0.981,3.814v153.6c0,4.71,3.823,8.533,8.533,8.533
	H102.4v34.133H68.266c-3.234,0-6.195,1.826-7.637,4.719l-34.133,68.267h0.085c-0.623,1.178-0.964,2.483-0.981,3.814v153.6
	c0,4.71,3.823,8.533,8.533,8.533h153.6c3.362-0.009,6.409-1.997,7.774-5.077l0,0l0.06-0.137l0,0l31.846-71.586H281.6v68.267
	c0,4.71,3.823,8.533,8.533,8.533h153.6c3.362-0.009,6.409-1.997,7.774-5.077l0,0l0.06-0.137l0,0l34.065-76.646
	c0.495-1.092,0.759-2.27,0.768-3.473V281.6l0,0c0.06-4.659-3.669-8.474-8.329-8.533c-0.068,0-0.137,0-0.205,0h-102.4v-34.133h68.267
	c3.362-0.009,6.409-1.997,7.774-5.077l0,0l0.06-0.137l0,0l34.065-76.646c0.495-1.092,0.759-2.27,0.768-3.473V8.533l0,0
	c0.06-4.659-3.669-8.474-8.329-8.533c-0.068,0-0.137,0-0.205,0h-153.6c-3.251-0.017-6.229,1.809-7.68,4.719l-34.133,68.267h0.085
	c-0.614,1.178-0.93,2.483-0.939,3.814V145.067z M196.266,162.133h12.467l-12.467,28.058V162.133z M196.266,145.067V78.814
	l17.067-34.133v100.386H196.266z M73.54,17.067h134.519l-25.6,51.2H47.94L73.54,17.067z M42.666,85.333H179.2v59.733h-76.8v17.067
	h76.8v59.733H42.666V85.333z M73.54,290.133h28.86v51.2H47.94L73.54,290.133z M213.333,418.133h-17.067v-66.253l17.067-34.133
	V418.133z M182.459,341.333h-62.993v-51.2h88.593L182.459,341.333z M179.2,494.933H42.666V358.4H102.4v76.8h17.067v-76.8H179.2
	V494.933z M196.266,463.258V435.2h12.467L196.266,463.258z M435.2,494.933H298.666V435.2h76.8v-17.067h-76.8V358.4H435.2V494.933z
	 M303.94,341.333l25.6-51.2h28.86v51.2H303.94z M452.266,463.258V351.881l17.067-34.133v107.11L452.266,463.258z M464.059,290.133
	l-25.6,51.2h-62.993v-51.2H464.059z M358.4,273.067h-34.133c-3.251-0.017-6.229,1.809-7.68,4.719l-34.133,68.267h0.085
	c-0.614,1.178-0.93,2.483-0.939,3.814v68.267h-51.2V281.6l0,0c0.06-4.659-3.669-8.474-8.329-8.533c-0.068,0-0.137,0-0.205,0h-102.4
	v-34.133h68.267c3.362-0.009,6.409-1.997,7.774-5.077l0,0l0.06-0.137l0,0l31.846-71.586H281.6V230.4c0,4.71,3.823,8.533,8.533,8.533
	H358.4V273.067z M435.2,221.867h-59.733v-76.8H358.4v76.8h-59.733V85.333H435.2V221.867z M452.266,190.191V78.814l17.067-34.133
	v107.11L452.266,190.191z M329.54,17.067h134.519l-25.6,51.2H303.94L329.54,17.067z"/>
<g>
</g>
<g>
</g>
<g>
</g>
<g>
</g>
<g>
</g>
<g>
</g>
<g>
</g>
<g>
</g>
<g>
</g>
<g>
</g>
<g>
</g>
<g>
</g>
<g>
</g>
<g>
</g>
<g>
</g>
</svg>
