<?xml version="1.0" encoding="iso-8859-1"?>
<!-- Generator: Adobe Illustrator 19.0.0, SVG Export Plug-In . SVG Version: 6.00 Build 0)  -->
<svg xmlns="http://www.w3.org/2000/svg" xmlns:xlink="http://www.w3.org/1999/xlink" version="1.1" id="Capa_1" x="0px" y="0px" viewBox="0 0 512.023 512.023" style="enable-background:new 0 0 512.023 512.023;" xml:space="preserve" width="512px" height="512px">
<g>
	<g>
		<path d="M508.888,35.148l-32-32c-2.292-2.302-5.49-3.51-8.75-3.052c-3.229,0.365-6.115,2.188-7.833,4.938L414.07,78.997    l-4.578-4.578c-13.792-13.823-38.396-13.198-51.49,1.375L2.732,472.909c-3.781,4.219-3.594,10.656,0.406,14.656l21.333,21.333    c2.073,2.073,4.802,3.125,7.542,3.125c2.542,0,5.083-0.896,7.115-2.719l397.135-355.292c7.469-6.719,11.75-16.333,11.75-26.375    c0-9.479-3.688-18.396-10.396-25.094l-4.578-4.578l73.964-46.234c2.75-1.719,4.573-4.604,4.938-7.833    C512.315,40.669,511.19,37.45,508.888,35.148z M32.419,486.679l-7.063-7.063l66.342-74.158l14.878,14.878L32.419,486.679z     M422.013,138.138L122.498,406.092l-16.555-16.555L373.877,90.044c5.25-5.792,15.042-6.042,20.531-0.542l13.941,13.941    c0.042,0.043,0.059,0.1,0.1,0.142c0.036,0.036,0.089,0.047,0.125,0.083l13.958,13.958c2.677,2.677,4.146,6.229,4.146,10.01    C426.679,131.638,424.971,135.471,422.013,138.138z M449.544,62.492l21.74-34.781l13.042,13.042L449.544,62.492z" fill="#adadad"/>
	</g>
</g>
<g>
</g>
<g>
</g>
<g>
</g>
<g>
</g>
<g>
</g>
<g>
</g>
<g>
</g>
<g>
</g>
<g>
</g>
<g>
</g>
<g>
</g>
<g>
</g>
<g>
</g>
<g>
</g>
<g>
</g>
</svg>
