<svg xmlns="http://www.w3.org/2000/svg" height="581pt" version="1.1" viewBox="-39 0 581 581.37495" width="581pt">
<g id="surface1">
<path d="M 474.601562 323.179688 L 289.261719 323.179688 L 289.261719 326.933594 C 289.261719 326.933594 289.261719 327.519531 289.261719 327.816406 C 289.261719 348.28125 272.695312 364.871094 252.230469 364.90625 L 248.707031 364.90625 L 248.707031 552.359375 C 248.738281 563.34375 257.675781 572.230469 268.664062 572.195312 C 268.722656 572.195312 268.78125 572.195312 268.839844 572.195312 L 474.601562 572.195312 C 485.589844 572.195312 494.496094 563.285156 494.496094 552.300781 L 494.496094 343.308594 C 494.625 332.320312 485.824219 323.308594 474.835938 323.179688 C 474.761719 323.179688 474.683594 323.179688 474.601562 323.179688 Z M 474.601562 323.179688 " style=" stroke:none;fill-rule:nonzero;fill:rgb(84.705882%,30.196078%,0.392157%);fill-opacity:1;" />
<path d="M 441.855469 235.144531 C 441.855469 224.160156 432.945312 215.25 421.960938 215.25 L 321.308594 215.25 C 310.320312 215.25 301.414062 224.160156 301.414062 235.144531 L 301.414062 317.308594 L 441.855469 317.308594 Z M 371.429688 277.753906 C 378.328125 277.59375 384.058594 283.058594 384.21875 289.960938 C 384.375 296.859375 378.910156 302.589844 372.011719 302.75 C 365.109375 302.90625 359.378906 297.441406 359.222656 290.542969 C 359.222656 290.523438 359.222656 290.507812 359.222656 290.488281 C 359.121094 283.550781 364.667969 277.851562 371.605469 277.753906 C 371.644531 277.753906 371.679688 277.753906 371.722656 277.753906 C 371.722656 277.753906 371.429688 277.753906 371.429688 277.753906 Z M 371.429688 254.804688 C 364.527344 254.804688 358.925781 249.207031 358.925781 242.304688 C 358.925781 235.402344 364.527344 229.804688 371.429688 229.804688 C 378.328125 229.804688 383.929688 235.402344 383.929688 242.304688 C 383.898438 249.082031 378.5 254.617188 371.722656 254.804688 Z M 334.921875 266.542969 C 334.765625 259.640625 340.234375 253.921875 347.136719 253.761719 C 354.039062 253.601562 359.761719 259.074219 359.917969 265.972656 C 360.070312 272.78125 354.753906 278.457031 347.953125 278.746094 C 341.015625 278.84375 335.316406 273.296875 335.21875 266.363281 C 335.21875 266.34375 335.21875 266.320312 335.21875 266.304688 Z M 382.929688 266.542969 C 382.773438 259.640625 388.238281 253.914062 395.136719 253.753906 C 402.039062 253.597656 407.769531 259.0625 407.925781 265.960938 C 408.085938 272.863281 402.628906 278.585938 395.726562 278.75 C 388.835938 278.75 383.230469 273.199219 383.164062 266.308594 Z M 382.929688 266.542969 " style=" stroke:none;fill-rule:nonzero;fill:rgb(77.647059%,78.431373%,78.039216%);fill-opacity:1;" />
<path d="M 25.164062 329.105469 L 215.316406 329.105469 L 215.316406 326.289062 C 215.996094 306.605469 231.949219 290.882812 251.644531 290.488281 L 254.519531 290.488281 L 254.519531 226.578125 L 8.964844 226.578125 L 8.964844 313.085938 C 8.996094 321.964844 16.226562 329.140625 25.105469 329.105469 C 25.128906 329.105469 25.144531 329.105469 25.164062 329.105469 Z M 25.164062 329.105469 " style=" stroke:none;fill-rule:nonzero;fill:rgb(100%,39.215686%,1.960784%);fill-opacity:1;" />
<path d="M 283.394531 327.816406 C 283.394531 310.574219 269.414062 296.59375 252.171875 296.59375 C 234.929688 296.59375 220.949219 310.574219 220.949219 327.816406 C 220.949219 345.058594 234.929688 359.039062 252.171875 359.039062 C 269.414062 359.035156 283.394531 345.058594 283.394531 327.816406 Z M 233.917969 327.816406 C 233.917969 317.734375 242.089844 309.5625 252.171875 309.5625 C 262.253906 309.5625 270.425781 317.734375 270.425781 327.816406 C 270.425781 337.898438 262.253906 346.066406 252.171875 346.066406 C 242.207031 345.910156 234.214844 337.78125 234.214844 327.816406 Z M 233.917969 327.816406 " style=" stroke:none;fill-rule:nonzero;fill:rgb(100%,100%,100%);fill-opacity:1;" />
<path d="M 264.847656 327.816406 C 264.847656 334.652344 259.304688 340.199219 252.464844 340.199219 C 245.625 340.199219 240.082031 334.652344 240.082031 327.816406 C 240.082031 320.976562 245.625 315.433594 252.464844 315.433594 C 259.304688 315.433594 264.847656 320.976562 264.847656 327.816406 Z M 264.847656 327.816406 " style=" stroke:none;fill-rule:nonzero;fill:rgb(100%,100%,100%);fill-opacity:1;" />
<path d="M 365.558594 19.875 L 359.691406 15.238281 L 361.390625 22.867188 C 364.566406 35.792969 363.410156 49.402344 358.105469 61.601562 C 356.117188 65.957031 352.757812 69.542969 348.539062 71.8125 C 343.851562 74.753906 337.980469 75.089844 332.984375 72.695312 C 331.566406 71.902344 330.296875 70.871094 329.230469 69.644531 L 326.648438 66.707031 L 324.476562 69.820312 C 312.035156 89.957031 309.027344 114.535156 316.257812 137.078125 C 320.410156 150.476562 329.464844 161.8125 341.613281 168.828125 L 348.65625 172.761719 L 345.777344 165.246094 C 336.390625 140.421875 347.539062 124.164062 357.515625 109.257812 C 364.089844 99.515625 369.78125 91.066406 369.253906 81.207031 C 369.242188 79.585938 370.542969 78.257812 372.164062 78.246094 C 373 78.242188 373.796875 78.589844 374.359375 79.210938 C 374.769531 79.621094 413.386719 119.585938 401.648438 159.730469 L 398.949219 168.945312 L 406.34375 163.074219 C 419.492188 152.210938 427.109375 136.054688 427.121094 119 C 427.183594 82.554688 407.109375 50.335938 365.558594 19.875 Z M 365.558594 19.875 " style=" stroke:none;fill-rule:nonzero;fill:rgb(100%,80.784314%,0%);fill-opacity:1;" />
<path d="M 381.285156 290.253906 C 381.285156 295.535156 377.003906 299.820312 371.722656 299.820312 C 366.4375 299.820312 362.15625 295.535156 362.15625 290.253906 C 362.15625 284.96875 366.4375 280.6875 371.722656 280.6875 C 377.003906 280.6875 381.285156 284.96875 381.285156 290.253906 Z M 381.285156 290.253906 " style=" stroke:none;fill-rule:nonzero;fill:rgb(40%,51.764706%,54.901961%);fill-opacity:1;" />
<path d="M 405.292969 266.25 C 405.292969 271.535156 401.007812 275.816406 395.726562 275.816406 C 390.441406 275.816406 386.160156 271.535156 386.160156 266.25 C 386.160156 260.96875 390.441406 256.683594 395.726562 256.683594 C 401.007812 256.683594 405.292969 260.96875 405.292969 266.25 Z M 405.292969 266.25 " style=" stroke:none;fill-rule:nonzero;fill:rgb(40%,51.764706%,54.901961%);fill-opacity:1;" />
<path d="M 381.285156 242.246094 C 381.285156 247.53125 377.003906 251.8125 371.722656 251.8125 C 366.4375 251.8125 362.15625 247.53125 362.15625 242.246094 C 362.15625 236.964844 366.4375 232.679688 371.722656 232.679688 C 377.003906 232.679688 381.285156 236.964844 381.285156 242.246094 Z M 381.285156 242.246094 " style=" stroke:none;fill-rule:nonzero;fill:rgb(40%,51.764706%,54.901961%);fill-opacity:1;" />
<path d="M 357.285156 266.25 C 357.285156 271.535156 353 275.816406 347.71875 275.816406 C 342.433594 275.816406 338.152344 271.535156 338.152344 266.25 C 338.152344 260.96875 342.433594 256.683594 347.71875 256.683594 C 353 256.683594 357.285156 260.96875 357.285156 266.25 Z M 357.285156 266.25 " style=" stroke:none;fill-rule:nonzero;fill:rgb(40%,51.764706%,54.901961%);fill-opacity:1;" />
<path d="M 289.261719 323.179688 L 289.261719 326.933594 C 289.261719 326.933594 289.261719 327.519531 289.261719 327.816406 C 289.261719 348.28125 272.695312 364.871094 252.230469 364.90625 L 248.707031 364.90625 L 248.707031 552.359375 C 248.738281 563.34375 257.675781 572.230469 268.664062 572.195312 C 268.722656 572.195312 268.78125 572.195312 268.839844 572.195312 L 371.71875 572.195312 L 371.71875 323.179688 Z M 289.261719 323.179688 " style=" stroke:none;fill-rule:nonzero;fill:rgb(100%,39.215686%,1.960784%);fill-opacity:1;" />
<path d="M 359.21875 290.488281 C 359.25 283.597656 364.832031 278.015625 371.722656 277.988281 L 371.722656 254.804688 C 364.800781 254.804688 359.191406 249.195312 359.191406 242.277344 C 359.191406 235.355469 364.800781 229.746094 371.722656 229.746094 L 371.722656 215.25 L 321.308594 215.25 C 310.320312 215.25 301.414062 224.160156 301.414062 235.144531 L 301.414062 317.308594 L 371.839844 317.308594 L 371.839844 302.8125 C 364.972656 302.84375 359.351562 297.355469 359.21875 290.488281 Z M 347.484375 278.75 C 340.582031 278.75 334.980469 273.152344 334.980469 266.25 C 334.980469 259.347656 340.582031 253.75 347.484375 253.75 C 354.382812 253.75 359.984375 259.347656 359.984375 266.25 C 359.960938 272.964844 354.660156 278.46875 347.953125 278.75 Z M 347.484375 278.75 " style=" stroke:none;fill-rule:nonzero;fill:rgb(100%,100%,100%);fill-opacity:1;" />
<path d="M 131.742188 226.578125 L 131.742188 329.105469 L 215.316406 329.105469 L 215.316406 326.289062 C 215.996094 306.605469 231.949219 290.882812 251.644531 290.488281 L 254.519531 290.488281 L 254.519531 226.574219 L 131.742188 226.574219 Z M 131.742188 226.578125 " style=" stroke:none;fill-rule:nonzero;fill:rgb(84.705882%,30.196078%,0.392157%);fill-opacity:1;" />
<path d="M 474.601562 314.375 L 450.835938 314.375 L 450.835938 235.144531 C 450.800781 219.3125 437.96875 206.480469 422.136719 206.445312 L 321.308594 206.445312 C 305.472656 206.480469 292.644531 219.3125 292.609375 235.144531 L 292.609375 314.375 L 290.085938 314.375 C 285.726562 302.195312 275.761719 292.871094 263.324219 289.316406 L 263.324219 223.644531 C 263.324219 220.402344 260.695312 217.773438 257.457031 217.773438 L 6.03125 217.773438 C 2.792969 217.773438 0.164062 220.402344 0.164062 223.644531 L 0.164062 313.085938 C 0.191406 326.828125 11.359375 337.945312 25.105469 337.910156 C 25.121094 337.910156 25.144531 337.910156 25.164062 337.910156 L 213.789062 337.910156 C 217.257812 351.089844 227.183594 361.613281 240.140625 365.84375 L 240.140625 552.300781 C 240.175781 568.132812 253.003906 580.964844 268.839844 580.996094 L 474.601562 580.996094 C 490.453125 580.996094 503.300781 568.152344 503.300781 552.300781 L 503.300781 343.308594 C 503.402344 327.425781 490.601562 314.472656 474.71875 314.375 C 474.683594 314.375 474.644531 314.375 474.601562 314.375 Z M 304.40625 235.085938 C 304.40625 225.71875 312 218.125 321.367188 218.125 L 422.132812 218.125 C 431.5 218.125 439.09375 225.71875 439.09375 235.085938 L 439.09375 314.375 L 304.113281 314.375 Z M 11.898438 313.082031 L 11.898438 229.511719 L 251.585938 229.511719 L 251.585938 287.847656 C 230.492188 288.324219 213.390625 305.089844 212.5 326.171875 L 25.164062 326.171875 C 17.902344 326.238281 11.964844 320.402344 11.902344 313.144531 C 11.898438 313.117188 11.898438 313.101562 11.898438 313.082031 Z M 224.179688 327.816406 C 224.179688 312.191406 236.84375 299.527344 252.464844 299.527344 C 268.089844 299.527344 280.753906 312.191406 280.753906 327.816406 C 280.753906 343.4375 268.089844 356.101562 252.464844 356.101562 C 236.84375 356.101562 224.179688 343.4375 224.179688 327.816406 Z M 491.5625 552.359375 C 491.5625 561.726562 483.96875 569.320312 474.601562 569.320312 L 268.839844 569.320312 C 259.472656 569.320312 251.878906 561.726562 251.878906 552.359375 L 251.878906 367.78125 L 252.464844 367.78125 C 274.574219 367.78125 292.492188 349.863281 292.492188 327.757812 C 292.492188 327.167969 292.492188 326.640625 292.492188 326.054688 L 474.71875 326.054688 C 484.085938 326.121094 491.628906 333.761719 491.5625 343.128906 C 491.5625 343.1875 491.5625 343.246094 491.5625 343.308594 Z M 491.5625 552.359375 " style=" stroke:none;fill-rule:nonzero;fill:rgb(17.647059%,22.745098%,23.921569%);fill-opacity:1;" />
<path d="M 371.722656 257.742188 C 380.25 257.742188 387.15625 250.832031 387.15625 242.304688 C 387.15625 233.777344 380.25 226.871094 371.722656 226.871094 C 363.195312 226.871094 356.285156 233.777344 356.285156 242.304688 C 356.320312 250.816406 363.210938 257.703125 371.722656 257.742188 Z M 371.722656 235.613281 C 375.382812 235.613281 378.351562 238.585938 378.351562 242.246094 C 378.351562 245.910156 375.382812 248.878906 371.722656 248.878906 C 368.058594 248.878906 365.089844 245.910156 365.089844 242.246094 C 365.089844 238.585938 368.058594 235.613281 371.722656 235.613281 Z M 371.722656 235.613281 " style=" stroke:none;fill-rule:nonzero;fill:rgb(17.647059%,22.745098%,23.921569%);fill-opacity:1;" />
<path d="M 371.722656 274.820312 C 363.195312 274.820312 356.285156 281.730469 356.285156 290.253906 C 356.285156 298.78125 363.199219 305.6875 371.722656 305.6875 C 380.15625 305.6875 387.027344 298.921875 387.148438 290.488281 C 387.25 281.933594 380.390625 274.917969 371.832031 274.820312 C 371.804688 274.820312 371.761719 274.820312 371.722656 274.820312 Z M 371.722656 296.945312 C 368.058594 296.945312 365.089844 293.972656 365.089844 290.3125 C 365.089844 286.652344 368.058594 283.679688 371.722656 283.679688 C 375.382812 283.679688 378.351562 286.652344 378.351562 290.3125 C 378.351562 290.371094 378.351562 290.429688 378.351562 290.488281 C 378.230469 294.070312 375.308594 296.914062 371.722656 296.945312 Z M 371.722656 296.945312 " style=" stroke:none;fill-rule:nonzero;fill:rgb(17.647059%,22.745098%,23.921569%);fill-opacity:1;" />
<path d="M 363.152344 266.25 C 363.117188 257.730469 356.179688 250.84375 347.660156 250.875 C 339.136719 250.910156 332.253906 257.847656 332.28125 266.367188 C 332.316406 274.890625 339.253906 281.773438 347.777344 281.742188 C 347.835938 281.742188 347.894531 281.742188 347.953125 281.742188 C 356.398438 281.578125 363.160156 274.691406 363.152344 266.25 Z M 347.953125 272.882812 C 344.289062 272.882812 341.320312 269.910156 341.320312 266.25 C 341.320312 262.585938 344.289062 259.617188 347.953125 259.617188 C 351.613281 259.617188 354.585938 262.589844 354.585938 266.25 C 354.585938 269.914062 351.613281 272.882812 347.953125 272.882812 Z M 347.953125 272.882812 " style=" stroke:none;fill-rule:nonzero;fill:rgb(17.647059%,22.745098%,23.921569%);fill-opacity:1;" />
<path d="M 395.726562 250.816406 C 387.199219 250.816406 380.289062 257.722656 380.289062 266.25 C 380.289062 274.777344 387.199219 281.683594 395.726562 281.683594 C 404.253906 281.683594 411.160156 274.777344 411.160156 266.25 C 411.128906 257.734375 404.242188 250.84375 395.726562 250.816406 Z M 395.726562 272.941406 C 392.0625 272.941406 389.09375 269.972656 389.09375 266.308594 C 389.09375 262.648438 392.0625 259.675781 395.726562 259.675781 C 399.386719 259.675781 402.355469 262.648438 402.355469 266.308594 C 402.328125 269.949219 399.363281 272.882812 395.726562 272.882812 Z M 395.726562 272.941406 " style=" stroke:none;fill-rule:nonzero;fill:rgb(17.647059%,22.745098%,23.921569%);fill-opacity:1;" />
<path d="M 273.652344 327.816406 C 273.554688 316.113281 263.992188 306.710938 252.289062 306.804688 C 240.585938 306.90625 231.183594 316.464844 231.277344 328.167969 C 231.375 339.800781 240.835938 349.179688 252.464844 349.179688 C 264.167969 349.179688 273.652344 339.695312 273.652344 327.992188 C 273.652344 327.933594 273.652344 327.875 273.652344 327.816406 Z M 243.015625 327.816406 C 243.117188 322.597656 247.421875 318.449219 252.640625 318.542969 C 257.859375 318.640625 262.007812 322.949219 261.914062 328.167969 C 261.820312 333.3125 257.617188 337.441406 252.472656 337.441406 C 247.253906 337.441406 243.023438 333.207031 243.023438 327.992188 C 243.015625 327.933594 243.015625 327.875 243.015625 327.816406 Z M 243.015625 327.816406 " style=" stroke:none;fill-rule:nonzero;fill:rgb(17.647059%,22.745098%,23.921569%);fill-opacity:1;" />
<path d="M 353.820312 182.675781 L 355.113281 182.675781 C 358.351562 182.664062 360.96875 180.023438 360.957031 176.785156 C 360.953125 175.71875 360.660156 174.671875 360.101562 173.757812 C 343.140625 146.113281 353.644531 130.503906 364.796875 114.011719 C 369.269531 107.90625 372.996094 101.289062 375.886719 94.292969 C 387.625 109.902344 406.347656 142.476562 386.277344 171.292969 C 384.414062 173.945312 385.0625 177.609375 387.722656 179.46875 C 389.304688 180.578125 391.335938 180.835938 393.144531 180.15625 C 418.8125 170.441406 435.84375 145.917969 435.988281 118.472656 C 435.988281 56.851562 381.933594 19.933594 355.933594 2.210938 L 354.171875 1.035156 C 351.503906 -0.800781 347.851562 -0.132812 346.011719 2.539062 C 344.582031 4.605469 344.628906 7.355469 346.132812 9.371094 C 355.007812 23.847656 356.53125 41.660156 350.242188 57.4375 C 349.019531 60.113281 346.960938 62.320312 344.371094 63.714844 C 342.207031 65.210938 339.460938 65.582031 336.976562 64.714844 C 335.074219 63.261719 333.765625 61.179688 333.277344 58.84375 C 332.609375 55.675781 329.5 53.644531 326.324219 54.3125 C 325.019531 54.589844 323.855469 55.292969 323.007812 56.320312 C 304.121094 79.714844 298.375 111.085938 307.75 139.65625 C 314.328125 161.191406 331.890625 177.582031 353.820312 182.675781 Z M 327.175781 71.167969 C 328.472656 72.660156 330.023438 73.910156 331.753906 74.867188 C 337.578125 77.746094 344.464844 77.4375 350.007812 74.042969 C 354.820312 71.441406 358.640625 67.308594 360.863281 62.308594 C 366.339844 49.546875 367.515625 35.359375 364.210938 21.871094 C 389.796875 41.238281 424.246094 72.753906 424.246094 118.472656 C 424.199219 134.652344 416.984375 149.984375 404.527344 160.316406 C 416.792969 118.355469 376.945312 77.390625 376.476562 76.921875 C 374.195312 74.621094 370.476562 74.597656 368.175781 76.878906 C 367.007812 78.035156 366.382812 79.625 366.441406 81.265625 C 366.441406 90.183594 361.277344 98.285156 354.996094 107.613281 C 345.136719 122.289062 333.164062 140.011719 343.257812 166.304688 C 331.757812 159.648438 323.179688 148.898438 319.253906 136.195312 C 312.277344 114.476562 315.128906 90.789062 327.0625 71.34375 Z M 327.175781 71.167969 " style=" stroke:none;fill-rule:nonzero;fill:rgb(17.647059%,22.745098%,23.921569%);fill-opacity:1;" />
</g>
</svg>