<?xml version="1.0" encoding="iso-8859-1"?>
<!-- Generator: Adobe Illustrator 19.0.0, SVG Export Plug-In . SVG Version: 6.00 Build 0)  -->
<svg version="1.1" id="Layer_1" xmlns="http://www.w3.org/2000/svg" xmlns:xlink="http://www.w3.org/1999/xlink" x="0px" y="0px"
	 viewBox="0 0 512 512" style="enable-background:new 0 0 512 512;" xml:space="preserve">
<polyline style="fill:#F7B239;" points="342.097,372.42 40.197,512 23.511,475.908 325.411,336.327 "/>
<polyline style="fill:#E09B2D;" points="333.12,353.003 31.22,492.582 23.511,475.908 325.411,336.327 "/>
<path  d="M406.353,373.569c-5.089,2.352-11.366,4.165-18.183,5.317c-24.58,4.201-56.253-0.12-64.739-18.459
	c-10.826-23.416,20.295-60.85,43.711-71.676c12.134-5.605,25.432-5.569,36.942-0.972c10.694,4.261,19.851,12.482,25.072,23.776
	C439.983,334.972,429.781,362.732,406.353,373.569z"/>
<g>
	<path style="fill:#F95428;" d="M406.353,373.569c-5.089,2.352-11.366,4.165-18.183,5.317c-13.682-2.508-25.384-8.353-30.053-18.459
		c-10.826-23.416,20.283-60.85,43.711-71.676c0.744-0.348,1.5-0.672,2.256-0.972c10.694,4.261,19.851,12.482,25.072,23.776
		C439.983,334.972,429.781,362.732,406.353,373.569z"/>
	<path  d="M363.708,0c0,123.869-87.661,102.906-85.755,186.755c0.846,37.205,25.636,61.91,57.921,73.339
		c9.211,3.261,17.584-6.602,13.052-15.258c-13.305-25.414-22.114-66.747,30.027-101.911c2.355,47.681,41.924,55.264,41.924,89.567
		c0,4.33-0.274,8.235-0.751,11.75c-1.149,8.455,7.636,14.803,15.345,11.144c27.136-12.88,48.033-36.217,52.105-70.536
		C500.917,72.415,363.708,0,363.708,0z"/>
</g>
</svg>
