<?xml version="1.0" encoding="iso-8859-1"?>
<!-- Generator: Adobe Illustrator 19.1.0, SVG Export Plug-In . SVG Version: 6.00 Build 0)  -->
<svg version="1.1" id="Capa_1" xmlns="http://www.w3.org/2000/svg" xmlns:xlink="http://www.w3.org/1999/xlink" x="0px" y="0px"
	 viewBox="0 0 489.183 489.183" style="enable-background:new 0 0 489.183 489.183;" xml:space="preserve">
<g>
	<g>
		<path d="M425.054,220.813l-23.9-32.7c-1.5-2.1-1.6-5-0.1-7.1l23.4-33c2.1-3,1.1-7.2-2.1-8.9l-35.7-19.1c-2.3-1.2-3.6-3.8-3.1-6.4
			l6.7-39.9c0.6-3.6-2.1-7-5.8-7.1l-40.4-1.7c-2.6-0.1-4.9-1.9-5.6-4.4l-11.2-39c-1-3.5-4.9-5.4-8.3-3.9l-37.2,16
			c-2.4,1-5.2,0.4-7-1.5l-27-30.1c-2.5-2.7-6.7-2.7-9.2,0.1l-26.6,30.5c-1.7,2-4.5,2.6-6.9,1.6l-37.4-15.4c-3.4-1.4-7.2,0.5-8.2,4
			l-10.7,39c-0.7,2.5-2.9,4.3-5.5,4.5l-40.4,2.3c-3.7,0.2-6.3,3.6-5.7,7.2l7.3,39.8c0.5,2.6-0.8,5.2-3,6.4l-35.4,19.6
			c-3.2,1.8-4.1,6-2,8.9l23.9,32.7c1.5,2.1,1.6,5,0.1,7.1l-23.4,33c-2.1,3-1.1,7.2,2.1,8.9l35.7,19.1c2.3,1.2,3.6,3.8,3.1,6.4
			l-6.7,39.9c-0.6,3.6,2.1,7,5.8,7.1l40.4,1.7c2.6,0.1,4.9,1.9,5.6,4.4l11.3,38.9c1,3.5,4.9,5.4,8.3,3.9l37.2-16
			c2.4-1,5.2-0.4,7,1.5l27,30.1c2.5,2.7,6.7,2.7,9.2-0.1l26.6-30.5c1.7-2,4.5-2.6,6.9-1.6l37.4,15.4c3.4,1.4,7.2-0.5,8.2-4l10.7-39
			c0.7-2.5,2.9-4.3,5.5-4.5l40.4-2.3c3.7-0.2,6.3-3.6,5.7-7.2l-7.3-39.8c-0.5-2.6,0.8-5.2,3-6.4l35.4-19.6
			C426.354,228.013,427.254,223.813,425.054,220.813z M244.654,295.513c-60.5,0-109.8-49.3-109.8-109.8s49.3-109.8,109.8-109.8
			s109.8,49.3,109.8,109.8C354.454,246.313,305.154,295.513,244.654,295.513z"/>
		<path d="M343.554,366.513c-5.8,5.9-13.9,9.4-22.6,9.4c-3.1,0-6.2-0.5-9.1-1.3l-25.8-7.8l-19.9,18.2c-0.7,0.6-1.3,1.2-2,1.7
			l32,99.2c1.1,3.5,5.6,4.3,7.9,1.4l23.3-29.9c1.1-1.5,3.1-2.1,4.8-1.6l36.3,10.6c3.5,1,6.7-2.3,5.6-5.7L343.554,366.513z"/>
		<path d="M203.354,366.813l-25.8,7.8c-3,0.9-6,1.3-9.1,1.3c-8.7,0-16.7-3.5-22.6-9.4l-30.5,94.3c-1.1,3.5,2.1,6.7,5.6,5.7
			l36.3-10.6c1.8-0.5,3.7,0.1,4.8,1.6l23.3,29.9c2.2,2.9,6.8,2.1,7.9-1.4l32-99.2c-0.7-0.5-1.4-1.1-2-1.7L203.354,366.813z"/>
		<path d="M309.754,158.413l-41.4-3l-15.6-38.4c-2.9-7.2-13.2-7.2-16.1,0l-15.6,38.4l-41.4,3c-7.8,0.6-10.9,10.3-5,15.3l31.7,26.8
			l-9.9,40.3c-1.9,7.6,6.4,13.6,13,9.5l35.2-21.9l35.2,21.9c6.6,4.1,14.9-1.9,13-9.5l-9.9-40.3l31.7-26.8
			C320.654,168.713,317.554,159.013,309.754,158.413z"/>
	</g>
</g>
<g>
</g>
<g>
</g>
<g>
</g>
<g>
</g>
<g>
</g>
<g>
</g>
<g>
</g>
<g>
</g>
<g>
</g>
<g>
</g>
<g>
</g>
<g>
</g>
<g>
</g>
<g>
</g>
<g>
</g>
</svg>
