<?xml version="1.0" encoding="iso-8859-1"?>
<!-- Generator: Adobe Illustrator 19.0.0, SVG Export Plug-In . SVG Version: 6.00 Build 0)  -->
<svg version="1.1" id="Capa_1" xmlns="http://www.w3.org/2000/svg" xmlns:xlink="http://www.w3.org/1999/xlink" x="0px" y="0px"
	 viewBox="0 0 512.001 512.001" style="enable-background:new 0 0 512.001 512.001;" xml:space="preserve">
<path style="fill:#FFDC0F;" d="M175.015,484.017c1.241,0.725,2.438,1.528,3.56,2.462c5.732,4.773,11.376,9.379,17.323,13.929
	c4.135,3.164,7.456,6.973,12.99,7.486c5.095,0.473,10.464-1.517,15.331-2.636c7.081-1.629,13.651-4.795,21.024-5.777
	c7.558-1.006,15.734-2.989,22.77-5.853c4.937-2.01,9.283-5.274,14.256-7.106c4.915-1.811,9.932-3.672,14.916-5.14
	c6.643-1.957,12.243-6.474,18.406-9.508c6.651-3.273,14.394-5.937,20.399-10.305c2.712-1.972,2.533-4.65,3.276-7.739
	c1.727-7.18,2.354-14.6,3.064-21.994c0.692-7.203,1.082-14.491,0.77-21.743c-0.264-6.136-2.761-12.17-2.107-18.473
	c0.388-3.74,2.038-7.255,2.35-11.081c0.29-3.571,0.087-7.179-0.512-10.709c-0.746-4.398-1.797-8.762-2.169-13.215
	c-0.338-4.048-0.02-8.186-0.572-12.211c-0.26-1.894-0.975-5.211-3.133-5.937c-1.28-0.431-3.588,0.763-4.673,1.083
	c-3.873,1.145-7.694,2.405-11.393,4.036c-6.836,3.015-13.214,6.923-20.058,9.918c-8.081,3.538-15.178,6.261-22.309,11.67
	c-2.236,1.696-6.873,5.756-9.903,5.947c-3.201,0.202-8.236-6.475-10.052-8.916c-4.086-5.49-8.425-8.429-14.42-11.428
	c-7.39-3.697-13.955-7.666-14.81-16.633c-6.024,0.212-9.623,4.654-14.248,7.696c-3.414,2.245-8.056,3.143-11.8,4.903
	c-10.227,4.807-21.541,7.36-30.919,13.885c-6.246,4.346-12.476,8.512-20.092,9.565c-6.052,0.837-8.021-4.771-10.997-9.372
	c-1.631-2.521-4.034-3.753-6.232-5.664c-2.028-1.763-3.652-3.98-5.695-5.734c-1.99-1.709-5.575-5.186-7.68-3.02
	c0.212,7.803-1.029,15.724-1.1,23.564c-0.103,11.421-0.484,23.046,0.067,34.456c0.547,11.314-0.638,22.957-0.061,34.157
	c0.518,10.045,11.902,13.877,18.657,19.125c2.755,2.141,4.653,5.041,7.147,7.447c4.025,3.882,9.03,6.604,13.255,10.286
	C164.216,479.421,169.984,481.079,175.015,484.017z"/>
<g>
	<path style="fill:#FFDC7E;" d="M338.999,283.256c-16.947,3.473-32.856,12.501-48.993,18.513
		c-14.923,5.56-29.406,12.139-44.029,18.39c-3.705,1.584-8.84,4.473-11.789,7.254c-1.479,1.394-2.318,3.807-2.024,5.936
		c0.416,3.004,2.508,5.62,4.326,7.866c2.303,2.847,3.934,6.066,6.788,8.42c3.63,2.994,8.015,4.872,11.808,7.635
		c3.192,2.326,5.864,5.396,8.474,8.281c1.949,2.154,3.538,4.317,6.574,3.281c6.339-2.162,12.084-7.159,18.323-9.812
		c9.607-4.086,19.079-8.536,28.637-12.74c10.315-4.537,21.146-8.064,31.462-12.579c5.57-2.437,11.023-5.321,16.585-7.842
		c5.872-2.661,11.739-5.921,17.224-9.267c3.756-2.292,6.013-4.191,4.007-8.358c-2.933-6.094-9.769-8.989-14.462-13.765
		c-4.812-4.897-9.652-9.102-16.049-12.054c-2.193-1.012-4.541-1.728-6.959-1.907C343.608,280.117,341.083,281.647,338.999,283.256z"
		/>
	<path style="fill:#FFDC7E;" d="M121.132,271.775c-11.506,4.073-22.932,10.091-33.631,15.847c-4.407,2.371-7.209,2.471-8.534,7.92
		c-1.165,4.794,1.33,9.364,4.165,12.91c4.251,5.315,8.514,9.946,13.693,14.444c2.638,2.291,5.401,4.763,8.455,6.488
		c1.904,1.075,4.289,1.409,6.017,2.758c2.424,1.892,4.102,5.558,5.937,8.03c2.2,2.962,4.139,6.146,6.843,8.696
		c4.31,4.065,7.73,9.9,12.894,12.849c6.506,3.716,13.411,13.035,21.628,10.393c3.84-1.235,7.449-3.673,11.203-5.22
		c4.003-1.65,7.829-3.353,11.468-5.727c11.608-7.574,24.135-14.221,35.32-22.38c3.209-2.341,8.436-6.401,4.705-10.481
		c-4.496-4.917-11.15-1.227-15.976-5.082c-8.864-7.081-18.221-12.793-28.717-17.281c-6.167-2.636-11.809-5.07-17.04-9.334
		c-2.544-2.074-4.729-4.609-7.382-6.528c-6.864-4.962-14.193-9.186-20.533-14.909C127.6,271.516,124.711,267.311,121.132,271.775z"
		/>
	<path style="fill:#FFDC7E;" d="M137.533,263.574c1.236-0.872,2.812-1.279,4.224-1.751c3.22-1.076,6.259-2.459,9.441-3.719
		c3.834-1.518,7.848-2.145,11.757-3.412c4.137-1.341,8.083-3.171,12.302-4.216c17.528-4.343,32.322-15.596,49.557-20.525
		c5.626-1.609,12.512-3.163,17.428-6.288c5.643-3.588-6.202-10.801-8.814-13.229c-7.26-6.748-17.031-9.911-25.794-14.319
		c-3.854-1.938-8.565-5.983-12.831-6.604c-6.889-1.002-14.928,2.227-21.355,4.277c-11.212,3.577-21.835,8.39-33.192,11.546
		c-8.819,2.451-17.228,5.135-25.717,8.562c-4.273,1.725-8.151,3.333-12.213,5.427c-2.08,1.072-3.996,0.872-6.016,1.674
		c-2.032,0.807-4.984,3.757-6.348,5.459c-2.526,3.151-0.549,6.327,2.047,9.386c2.653,3.126,5.956,5.776,8.688,8.874
		c2.769,3.141,5.853,6.33,9.008,9.089c4.474,3.911,9.695,6.924,14.235,10.86C128.404,268.536,130.287,264.544,137.533,263.574z"/>
	<path style="fill:#FFDC7E;" d="M392.378,250.726c-0.219-3.484-4.39-5.127-6.587-7.046c-4.341-3.792-8.974-5.587-13.942-8.33
		c-3.012-1.662-5.662-4.069-8.667-5.771c-4.894-2.771-10.261-4.533-15.226-7.207c-5.562-2.995-11.463-5.554-16.763-8.968
		c-5.091-3.279-8.912-7.579-13.03-11.951c-5.821-6.18-13.988-10.782-22.63-9.847c-11.719,1.267-22.027,9.47-31.538,15.67
		c-4.138,2.697-8.099,5.452-11.591,8.948c-2.826,2.829-2.765,2.813-0.047,5.8c2.829,3.11,6.244,4.877,10.161,6.561
		c5.189,2.23,9.675,4.494,14.427,7.688c6.213,4.176,13.164,6.582,19.414,10.646c5.21,3.389,11.012,5.776,16.267,9.135
		c5.77,3.689,11.773,7.092,17.084,11.422c3.225,2.629,7.581,8.298,11.568,9.52c3.86,1.183,9.342-1.198,13.075-2.322
		c4.683-1.41,10.155-4.286,14.229-7c4.637-3.089,9.375-6.299,14.651-8.199C387.111,258.079,392.711,256.018,392.378,250.726z"/>
</g>
<path style="fill:#93522E;" d="M216.261,235.418c-13.127,5.524-27.683,7.43-41.02,12.302c-5.586,2.041-11.074,4.588-16.598,6.827
	c-5.645,2.287-10.588,5.808-16.134,8.221c-3.326,1.447-13.908,2.917-12.495,8.051c1.75,6.363,10.686,7.872,15.727,10.19
	c5.99,2.754,11.888,5.728,17.742,8.695c8.155,4.132,12.16,11.943,18.929,17.616c6.963,5.835,15.239,9.937,23.701,13.115
	c3.892,1.461,9.283,3.488,12.39,6.274c3.159,2.833,4.805,5.595,9.643,4.727c4.179-0.75,7.007-3.59,10.653-5.534
	c6.208-3.31,13.127-5.02,19.597-7.588c8.875-3.523,16.186-9.649,24.866-13.45c6.962-3.049,14.46-5.216,21.421-8.219
	c6.365-2.746,12.977-4.829,19.105-8.071c2.989-1.582,5.978-3.443,9.179-4.509c1.373-0.457,5.503-0.808,6.592-2.066
	c1.832-2.116-0.672-6.151-2.049-7.885c-3.656-4.602-9.858-6.419-14.698-9.575c-5.806-3.786-12.566-6.81-18.934-9.423
	c-5.854-2.402-11.018-6.874-16.542-10.053c-6.676-3.843-13.865-6.614-20.66-10.28c-4.546-2.453-9.098-4.824-13.854-6.807
	c-3.322-1.385-6.381-3.831-10.098-3.913C234.343,223.877,222.124,229.537,216.261,235.418z"/>
<path style="fill:#FFDC0F;" d="M95.68,20.009c-4.845-0.037-9.393-0.48-13.01,3.071c-3.639,3.572-8.783,5.246-12.555,8.771
	c-4.236,3.958-6.889,9.658-8.226,15.213c-0.901,3.742-0.781,8.382-0.458,12.212c0.315,3.736,1.047,7.939,2.327,11.451
	c0.677,1.859,1.449,3.782,2.816,5.252c1.4,1.506,3.252,1.854,4.835,3.071c1.104,0.849,2.401,1.347,3.534,2.153
	c2.271,1.615,4.586,2.782,7.167,3.789c2.174,0.849,4.721,0.583,6.97,1.36c4.814,1.665,6.705,9.202,7.906,13.499
	c0.511,1.829,0.421,3.77,1.041,5.558c0.566,1.63,1.115,3.076,1.572,4.74c1.008,3.674,4.41,1.609,7,1.264
	c1.02-0.136,2.024-0.005,3.014-0.272c1.324-0.358,2.513-1.285,3.727-1.888c1.231-0.612,2.532-0.897,3.808-1.372
	c1.756-0.654,3.259-1.786,4.8-2.841c1.587-1.086,3.2-1.784,4.45-3.264c0.957-1.132,0.777-1.246,0.51-2.683
	c-0.527-2.838-1.323-5.614-2.113-8.388c-0.408-1.432-0.822-2.864-1.19-4.307c-0.238-0.935-0.762-1.432-1.021-2.189
	c-0.855-2.502,1.325-6.36,2.783-8.331c1.134-1.534,1.961-2.797,2.57-4.612c0.602-1.796,1.647-3.299,2.357-5.06
	c0.626-1.556,0.846-3.07,1.653-4.575c0.97-1.809,1.378-3.206,1.321-5.257c-0.059-2.121,0.065-4.396-0.502-6.461
	c-0.646-2.35-1.188-4.061-0.716-6.449c0.561-2.834-0.683-4.574-1.903-7.007c-0.787-1.57-1.203-3.108-2.451-4.401
	c-2.358-2.442-4.812-4.276-7.913-5.618c-1.727-0.748-3.026-2.072-4.691-2.924c-1.714-0.877-3.57-1.084-5.434-1.479
	c-2.122-0.45-4.162-1.287-6.314-1.593C100.842,20.086,98.205,20.028,95.68,20.009z"/>
<path style="fill:#FF8225;" d="M133.16,108.443c-1.539,2.613-1.69,5.513-3.827,7.897c-2.348,2.618-4.039,4.24-7.518,4.674
	c-1.368,0.171-2.521,0.866-3.857,1.073c-1.726,0.268-3.454,0.031-5.2,0.427c-2.313,0.525-4.69,1.028-6.897-0.126
	c-1.332-0.697-3.363-2.578-3.97-3.991c-0.887-2.067,0.232-2.988,1.777-4.142c3.643-2.719,7.831-4.013,11.772-6.235
	c2.969-1.674,6.172-3.152,9.248-4.601c1.901-0.895,2.645-1.303,4.863-0.724c1.288,0.337,2.451,2.28,3.587,2.204
	c0.041,0.13,0.048,0.263,0.021,0.4C134.743,105.395,133.157,107.319,133.16,108.443z"/>
<g>
	<path style="fill:#FFE1AE;" d="M62.36,145.483c-1.856,1.528-2.863,2.76-3.321,5.089c-0.503,2.555-2.111,4.608-3.838,6.519
		c-2.738,3.031-6.152,5.941-8.156,9.543c-0.566,1.017-0.478,1.762,0.08,2.681c0.917,1.512,2.254,3.683,4.017,4.337
		c2.203,0.816,4.412,0.74,6.576,1.931c1.603,0.882,2.873,1.904,3.988,3.354c2.621,3.406,2.545,7.374,3.968,11.239
		c0.468-0.949,0.379-2.257,0.64-3.317c0.361-1.466,1.055-2.799,1.683-4.16c1.24-2.69,2.207-5.331,3.791-7.85
		c1.521-2.42,3.137-4.625,4.931-6.852c0.973-1.208,4.035-3.814,3.962-5.49c-0.052-1.189-1.248-1.386-2.218-1.792
		c-2.943-1.231-5.84-2.567-8.722-3.953c-2.67-1.284-4.664-3.919-5.793-6.659c-0.684-1.659-0.515-3.591-1.451-5.166"/>
	<path style="fill:#FFE1AE;" d="M185.935,93.931c-0.361,0.109-0.681,0.548-0.93,1.431c-0.647,2.295-1.419,4.436-2.801,6.411
		c-1.535,2.194-2.467,5.073-4.177,7.079c-1.537,1.804-3.934,3.654-5.777,5.201c-1.026,0.861-3.751,2.046-3.837,3.686
		c-0.136,2.608,4.981,3.512,6.707,4.291c2.822,1.273,4.863,3.881,6.834,6.214c1.568,1.856,2.706,4.092,4.177,6.048
		c1.457,1.938,1.856,4.275,2.657,6.507c1.277-4.99,2.012-10.087,4.508-14.724c2.045-3.801,5.193-7.038,7.216-10.798
		c1.823-3.387-3.865-5.792-5.809-7.845c-3.297-3.482-4.373-7.843-6.775-11.82C187.249,94.486,186.536,93.75,185.935,93.931z"/>
	<path style="fill:#FFE1AE;" d="M308.793,100.515c-0.763,1.615-1.139,3.433-1.911,5.063c-1.033,2.184-2.371,4.127-3.827,6.038
		c-2.761,3.624-5.934,7.885-9.572,10.635c-0.659,0.498-2.616,1.575-2.465,2.66c0.129,0.925,2.054,1.682,2.75,2.114
		c3.756,2.327,7.871,4.086,10.793,7.523c1.694,1.992,3.331,4.315,4.659,6.561c1.088,1.84,2.813,4.147,3.158,6.281
		c1.288-2.055,1.117-5.683,2.003-8.082c1.242-3.361,2.894-6.684,4.842-9.699c2.279-3.527,5.171-6.722,7.363-10.247
		c-2.439-3.169-7.294-4.899-10.792-6.569C311.42,110.707,306.898,105.947,308.793,100.515z"/>
	<path style="fill:#FFE1AE;" d="M400.915,161.611c-1.141,4.832-3.124,9.857-6.076,13.873c-1.561,2.124-3.123,4.478-4.856,6.472
		c-1.392,1.602-3.635,2.465-4.86,4.189c-2.157,3.034,1.733,3.501,3.621,5.016c2.926,2.347,7.831,3.385,9.406,7.17
		c1.53,3.676,2.246,8.115,4.704,11.373c1.008-0.63,1.248-2.906,1.736-4.03c1.054-2.424,2.006-4.931,3.225-7.284
		c2.086-4.026,3.908-7.749,6.796-11.325c2.249-2.786,4.176-3.088,1.856-6.547c-2.36-3.52-5.928-6.005-8.428-9.442
		C406,168.27,403.607,164.537,400.915,161.611z"/>
</g>
<path style="fill:#FF9550;" d="M369.615,86.711c1.49-1.388,2.643-3.172,3.959-4.716c2.184-2.562,4.566-5.019,6.864-7.476
	c2.935-3.139,5.996-6.125,8.917-9.27c2.941-3.167,6.398-5.77,9.435-8.829c4.379-4.41,8.387-9.207,13.208-13.161
	c3.903-3.201,7.665-6.502,11.68-9.581c2.336-1.792,4.217-4.018,6.982-5.23c2.55-1.118,4.642,1.199,6.684,2.51
	c2.617,1.68,5.144,3.71,7.201,6.032c0.858,0.969,1.875,1.861,2.269,3.107c0.534,1.689,0.612,3.695,0.988,5.439
	c0.679,3.148,0.692,6.437,1.684,9.519c0.914,2.84,1.628,4.081-0.172,6.9c-3.325,5.208-7.91,9.512-12.108,13.995
	c-6.049,6.461-12.589,12.437-18.824,18.717c-4.053,4.083-8,8.328-12.121,12.325c-1.694,1.644-3.349,3.291-4.884,5.078
	c-0.692,0.805-2.202,3.357-3.34,3.494c-2.389,0.286-2.109-5.26-2.421-6.565c-0.554-2.321-0.632-4.8-1.397-7.061
	c-0.433-1.278-1.205-3.57-2.156-4.483c-1.922-1.845-5.155-3.353-7.62-4.328c-3.188-1.26-6.211-3.17-9.68-3.441
	C372.237,89.49,368.384,88.81,369.615,86.711z"/>
<path style="fill:#FF6E73;" d="M431.121,24.932c3.17-3.173,6.989-4.74,10.965-6.731c3.193-1.598,6.398-2.79,9.948-3.18
	c1.592-0.175,3.329-0.312,4.912-0.31c1.724,0.002,3.524-0.33,5.064,0.486c1.084,0.575,1.949,1.488,2.867,2.351
	c1.285,1.207,3.134,1.863,3.795,3.561c0.76,1.951,0.191,4.406,0.305,6.449c0.156,2.796,0.073,5.577-1.081,8.196
	c-1.71,3.882-3.852,8.088-6.58,11.333c-1.443,1.716-2.884,3.444-4.458,5.04c-0.83,0.841-2.018,2.639-3.163,2.998
	c-0.339-1.283-0.915-1.859-1.672-2.879c-1.024-1.382-1.623-3.227-2.187-4.832c-1.082-3.08-2.567-6.312-5.102-8.476
	c-1.56-1.331-2.997-3.12-4.615-4.301c-1.478-1.079-3.215-1.821-4.701-2.936C432.665,29.629,428.117,26.047,431.121,24.932z"/>
<path style="fill:#FFE9D1;" d="M367.565,90.264c-0.605,0.791-0.863,1.935-1.155,2.878c-0.771,2.487-1.515,4.987-2.094,7.526
	c-0.636,2.79-1.146,5.443-1.631,8.218c-0.233,1.331-1.039,2.073-0.211,3.007c0.459,0.518,1.467,0.644,2.077,0.923
	c1.761,0.805,3.379,1.32,5.034,2.46c2.139,1.473,3.431,4.236,4.164,6.704c0.248,0.836,0.471,3.085,1.197,3.659
	c0.936,0.739,2.711-0.281,3.566-0.682c2.522-1.182,5.137-2.411,7.774-3.294c1.228-0.411,2.539-0.599,3.73-1.107
	c1.142-0.488,2.136-1.259,3.324-1.668c1.368-0.471,3.274-0.772,4.061-2.207c1.014-1.85,0.064-4.908-0.287-6.81
	c-0.488-2.644-1.806-4.58-2.794-7.035c-0.767-1.904-1.704-4.028-3.073-5.563c-1.355-1.519-3.079-3.034-4.891-3.918
	c-1.974-0.964-4.001-1.254-5.722-2.618c-1.527-1.21-3.798-1.796-5.721-2.183C372.552,88.08,369.789,88.731,367.565,90.264z"/>
<path style="fill:#93522E;" d="M362.235,116.644c0,3.571-0.128,7.126-0.137,10.701c-0.003,1.203-0.261,3.48,1.16,3.925
	c0.782,0.245,2.469-0.491,3.248-0.678c1.834-0.439,3.019-1.016,4.916-1.098c1.854-0.08,5.02-0.626,5.27-2.737
	c0.252-2.132-0.98-4.985-1.909-6.84c-0.806-1.61-2.018-2.172-3.42-3.136c-1.305-0.897-2.24-1.645-3.7-2.243
	c-0.987-0.404-1.891-1.083-2.967-1.207c-0.991-0.115-1.623,0.435-2.579,0.463C362.178,114.307,362.11,114.849,362.235,116.644z"/>
<path style="fill:#DCEDF3;" d="M275.17,5.523c-5.103,3.081-8.905,9.236-11.041,14.595c-2.16,5.42-2.892,11.191-4.268,16.803
	c-0.84-1.99-4.972-2.101-6.69-2.019c-2.241,0.107-4.346-0.042-6.58-0.135c-2.127-0.088-4.21,0.445-6.319,0.408
	c-1.982-0.035-3.255-0.214-5.223,0.479c-2.334,0.821-4.768,1.345-7.09,2.188c-5.565,2.022-10.942,3.769-15.239,7.985
	c-3.074,3.016-5.157,7.909-5.588,12.271c-0.144,1.453,0.301,3.693,1.004,4.978c0.88,1.609,2.728,1.945,4.35,2.44
	c5.894,1.797,11.535,1.358,17.649,1.507c6.119,0.15,12.239,0.594,18.354,0.862c15.42,0.675,30.561-3.657,45.999-1.894
	c8.219,0.939,16.176-1.154,24.327-1.555c3.313-0.163,6.754-0.31,10.062-0.281c2.429,0.021,4.898,0.388,7.311,0.177
	c2.38-0.209,4.548-0.744,6.884-1.14c1.282-0.218,2.947-0.042,4.136-0.672c3.642-1.928,4.996-8.235,5.176-11.926
	c0.111-2.276-0.303-5.19-1.099-7.338c-0.806-2.176-2.982-4.249-4.455-6.007c-2.706-3.229-6.065-5.915-10.059-7.261
	c-5.536-1.866-9.972-0.094-15.47,0.925c-2.3,0.426-3.789,0.451-5.136-1.712c-0.549-0.882-0.557-1.817-0.968-2.75
	c-0.413-0.939-1.261-1.579-1.67-2.515c-1.122-2.568-1.573-5-3.297-7.342c-1.799-2.443-3.256-5.017-5.536-7.059
	c-1.732-1.55-4.218-2.839-6.42-3.549c-3.211-1.035-6.805-2.632-10.162-2.924c-2.147-0.187-4.543,0.115-6.647,0.55
	C279.717,3.975,277.938,5.324,275.17,5.523z"/>
<path d="M355.689,220.547c-8.139-5.289-16.351-10.468-24.539-15.675c-7.182-4.568-15.581-8.993-21.872-14.655
	c-4.388-3.949-6.409-7.161-12.738-6.737c-6.477,0.434-12.383,5.069-17.631,8.367c-7.156,4.498-14.585,8.455-21.368,13.533
	c-4.069,3.046-8.585,5.71-12.641,8.856c-8.965-5.5-17.632-11.889-26.296-17.739c-8.783-5.929-15.197-14.628-26.395-12.408
	c-14.634,2.901-29.899,9.044-43.971,14.037c-12.954,4.596-26.057,8.611-38.984,13.282c-7.567,2.734-21.513,5.42-27.376,11.206
	c-1.767,1.745-1.711,4.078-0.798,6.182c2.115,4.871,7.365,8.577,11.092,12.201c6.083,5.916,11.607,12.332,17.61,18.31
	c3.218,3.205,6.36,6.07,9.528,8.77c-8.868,3.463-17.411,7.226-26.034,11.835c-6.312,3.373-22.469,6.839-21.249,16.571
	c1.03,8.223,13.737,18.125,19.249,23.764c8.169,8.358,16.502,16.246,25.026,24.105c-1.255,15.435,0.108,30.939,0.454,46.403
	c0.206,9.249-0.104,18.533-0.178,27.784c-0.067,8.113-1.701,16.873,0.099,24.875c1.394,6.19,6.563,10.148,11.243,14.057
	c5.615,4.689,11.068,9.799,17.096,13.934c13.73,9.42,27.414,19.324,41.734,27.855c12.02,7.161,21.532,15.86,35.945,11.628
	c17.596-5.167,35.16-11.034,52.45-17.152c16.312-5.772,32.295-13.182,47.965-20.514c10.341-4.838,21.808-8.452,23.323-21.162
	c1.106-9.274,0.336-18.872,0.861-28.205c0.566-10.074,0.748-20.342,0.802-30.432c0.096-17.973-3.345-36.598-1.512-54.464
	c9.971-4.149,20.019-8.131,29.96-12.327c6.853-2.892,20.403-6.502,17.425-16.565c-2.461-8.313-16.175-16.849-22.65-21.791
	c-5.05-3.855-10.272-7.048-15.587-10.047c6.242-3.192,12.297-6.777,18.516-10.167c7.236-3.943,21.856-6.705,24.581-15.196
	c0.539-1.683-0.061-3.68-1.295-4.899C386.014,236.587,369.233,229.348,355.689,220.547z M245.752,226.56
	c1.144,0.671,2.274,1.365,3.438,2.001c16.61,9.074,33.409,17.577,49.314,27.963c8.232,5.375,16.844,10.222,25.495,14.886
	c3.106,1.675,7.761,3.198,10.16,5.894c3.018,3.389,3.706,1.332-0.297,4.35c-2.758,2.08-7.052,2.867-10.298,4.1
	c-20.727,7.877-41.28,16.267-61.904,24.364c-10.162,3.99-19.923,8.914-30.043,12.991c-6.37,2.567-8.358,3.172-14.12-0.331
	c-4.218-2.565-8.518-4.967-12.759-7.492c-19.274-11.479-37.105-25.054-56.15-36.875c-4.331-2.688-8.519-5.521-12.728-8.36
	c0.124-0.089,0.232-0.153,0.363-0.254c2.342-0.048,5.437-1.882,7.578-2.694c11.225-4.26,22.282-8.9,33.537-13.073
	c11.862-4.398,23.627-9.144,35.395-13.796c10.609-4.194,21.185-9.678,32.002-13.159C245.134,226.947,245.461,226.765,245.752,226.56
	z M117.591,253.244c-4.686-4.599-8.901-9.648-13.483-14.348c-3.135-3.216-8.028-6.909-11.369-10.884
	c2.087-0.634,4.42-1.034,5.874-1.543c4.507-1.577,8.866-3.566,13.366-5.184c9.165-3.297,18.501-5.977,27.69-9.145
	c10.469-3.61,20.946-7.104,31.451-10.596c4.872-1.62,9.771-3.149,14.64-4.78c6.561-2.198,9.931-3.144,16.241,0.485
	c12.575,7.231,23.97,16.529,36.12,24.564c-24.093,5.421-47.782,16.824-70.766,25.247c-11.338,4.156-22.459,8.856-33.83,12.947
	c-1.875,0.674-4.012,1.434-5.9,2.424C124.168,259.347,120.713,256.31,117.591,253.244z M106.35,322.307
	c-6.948-7.113-15.893-14.533-21.387-22.857c-3.943-5.976,2.205-5.534,7.31-8.099c4.506-2.266,8.821-4.921,13.271-7.296
	c6.081-3.245,13.059-6.018,19.122-9.775c4.375,6.009,14.851,10.555,20.421,13.991c13.163,8.121,25.229,17.778,38.466,25.744
	c9.999,6.018,20.391,11.812,29.893,18.57c0.84,0.598,1.659,1.08,2.469,1.511c-0.963,0.617-1.922,1.232-2.861,1.83
	c-9.148,5.826-18.362,10.97-27.838,16.202c-4.106,2.267-8.331,4.313-12.533,6.392c-5.019,2.484-10.851,6.885-16.56,7.426
	c-8.13,0.769-19.177-15.797-25.263-21.485C122.8,336.926,114.083,330.225,106.35,322.307z M218.897,416.753
	c-0.974,14.56-2.571,29.204-3.088,43.779c-0.489,13.807,0.603,27.501,0.81,41.228c-3.481,0.227-6.998-0.344-10.672-2.328
	c-7.547-4.078-15.053-9.069-22.261-13.744c-15.269-9.905-30.619-20.297-44.646-31.84c-3.403-2.8-8.206-5.617-10.738-9.29
	c-3.374-4.897-2.422-9.978-2.247-15.479c0.318-9.957,0.157-19.933,0.146-29.896c-0.017-16.003-1.164-31.987-2.42-47.935
	c7.789,7.495,14.906,18.772,24.324,23.82c10.01,5.366,20.846-3.599,29.641-7.883c11.356-5.531,22.826-11.234,33.403-18.137
	c4.144-2.705,8.892-5.321,13.622-8.096C222.888,366.222,220.591,391.449,218.897,416.753z M336.559,447.528
	c-0.599,9.64-7.568,11.385-15.006,15.327c-9.256,4.905-19.24,8.451-28.879,12.477c-19.079,7.967-38.193,14.763-57.869,21.211
	c-3.315,1.087-6.497,2.35-9.63,3.371c-0.273-12.417-1.44-24.832-1.285-37.319c0.191-15.249,1.77-30.607,2.62-45.842
	c0.745-13.376,1.437-26.678,1.927-40.072c0.434-11.824,2.133-23.706,2.355-35.55c5.946,6.237,11.887,12.448,17.625,18.929
	c7.423,8.384,11.964,16.443,23.835,12.679c22.253-7.056,42.858-19.498,64.12-29.321c-0.642,5.584,0.082,11.265,0.506,17.024
	c0.71,9.652,0.904,19.233,0.941,28.913C337.894,408.587,337.75,428.338,336.559,447.528z M371.733,301.188
	c2.351,1.936,6.785,4.783,7.937,7.757c0.128,0.331,0.233,0.645,0.314,0.944c1.306,4.78-3.171,5.58-7.605,7.427
	c-4.097,1.708-8.266,3.226-12.362,4.951c-9.841,4.143-19.863,8.002-29.409,12.785c-19.384,9.712-39.192,18.527-59.025,27.221
	c-6.406,2.808-8.026,0.121-12.546-4.843c-3.663-4.022-7.361-8.007-10.972-12.075c-3.463-3.9-7.613-8.128-12.096-11.662
	c1.075-0.811,2.12-1.645,3.117-2.509c0.489-0.217,0.978-0.434,1.48-0.652c25.839-11.232,52.069-21.713,78.364-31.871
	c7.921-3.06,24.521-6.142,29.375-13.741c1.882,1.093,3.763,2.208,5.6,3.43C359.997,292.401,366.08,296.535,371.733,301.188z
	 M377.313,255.148c-5.112,2.47-10.036,5.235-14.983,8.015c-5.595,3.144-10.807,6.386-15.822,10.004
	c-0.35-0.19-0.698-0.378-1.049-0.569c-1.879-1.615-4.078-3.035-6.032-4.309c-20.325-13.257-42.181-24.849-62.999-37.376
	c-7.211-4.339-15.04-7.677-22.524-11.561c7.222-4.035,14.442-10.139,19.103-12.861c5.951-3.475,11.815-7.422,17.901-10.619
	c8.448-4.439,11.152,2.316,17.511,6.297c13.085,8.193,26.057,16.62,39.071,24.977c7.286,4.679,14.374,9.62,21.816,14.054
	c5.678,3.382,11.796,6.395,17.073,10.427C383.333,252.881,378.663,254.496,377.313,255.148z"/>
<path d="M78.783,88.325c2.826,1.116,5.783,1.585,8.607,2.622c5.872,2.157,6.943,6.927,8.53,12.426
	c0.679,2.351,1.618,4.624,2.225,6.995c0.63,2.459,0.9,5.015,1.766,7.402c3.433,9.467,15.413,7.693,22.88,4.924
	c9.091-3.371,17.26-11.535,12.081-21.723c-1.484-2.92-3.588-5.48-5.218-8.323c-6.25-10.902,1.421-14.578,5.1-24.297
	c10.539-27.837-6.774-50.412-35.123-52.605c-25.838-1.998-50.245,22.038-43.476,48.422C59.149,75.828,67.798,83.986,78.783,88.325z
	 M129.102,104.53c2.375,8.213-5.538,11.537-12.328,13.22c-2.603,0.645-5.804,1.444-8.433,0.351
	c-1.559-0.648-2.315-1.352-2.816-2.158C112.303,114.491,123.925,110.103,129.102,104.53z M90.724,23.152
	c13.078-2.655,29.639,1.938,36.664,13.862c7.289,12.371,2.562,27.375-4.734,38.371c-3.695,5.568-4.044,8.158-1.611,14.493
	c2.673,6.956,3.47,9.699-3.541,13.305c-2.249-10.76-4.404-21.5-6.911-32.224c-1.754-7.509-0.634-17.59-4.345-24.404
	c-0.439-0.807-1.514-1.51-2.462-1.412c-4.67,0.479-15.329,3.331-18.075,7.264c-3.05,4.37,1.918,9.356,3.988,13.055
	c4.014,7.173,7.92,14.385,12.045,21.513c3.476,6.008,5.597,13.454,9.488,19.352c-5.734,2.69-6.915,2.383-8.4-3.915
	c-1.127-4.78-1.085-10.36-4.691-14.131c-3.753-3.925-9.75-4.103-14.598-5.788C51.299,71.28,59.685,29.453,90.724,23.152z
	 M109.71,90.226c-1.787-4.206-3.706-8.385-6.085-12.535c-2.312-4.031-4.559-8.054-6.708-12.164c-1.045-1.998-2.028-4.628-3.414-6.41
	c-2.964-3.814-3.715-2.211,0.656-4.125c6.224-2.726,7.662-4.938,8.698,2.19c0.739,5.074,1.513,10.177,2.702,15.164
	C106.98,78.314,108.383,84.249,109.71,90.226z"/>
<path d="M207.837,68.741c5.996,3.349,15.401,2.908,21.951,2.975c4.122,0.042,8.267-0.219,12.411-0.562
	c9.173-0.045,18.572-1.223,27.245-1.711c8.815-0.254,17.663-0.402,26.442-1.115c10.605-0.355,21.213-0.582,31.842-0.547
	c8.753,0.029,22.073,3.197,26.614-6.471c5.107-10.872-0.612-25.862-10.658-31.626c-5.065-2.907-11.617-4.363-17.446-4.104
	c-5.938,0.264-5.919,0.304-7.26-5.276c-0.689-2.871-2.814-5.652-4.695-7.843c-3.936-4.585-9.268-8.382-14.934-10.506
	c-9.901-3.712-21.371-1.993-30.042,3.933c-9.786,6.688-12.767,16.808-13.918,27.731c-5.166-1.207-9.685-2.184-15.626-1.3
	c-8.628,1.284-18.394,4.669-25.654,9.603C205.928,47.486,194.589,61.341,207.837,68.741z M219.094,47.267
	c5.096-3.084,11.431-5.434,17.246-6.83c7.812-1.875,13.792-0.511,21.289,0.993c2.366,0.475,4.349-1.015,4.506-3.433
	c0.842-12.978,4.549-25.614,18.363-29.694c10.706-3.162,20.91,0.588,27.608,9.328c3.203,4.18,2.246,14.311,6.681,16.828
	c3.137,1.779,8.885-0.652,12.389-0.937c4.666-0.38,8.719,0.183,12.771,2.711c6.698,4.18,12.059,14.008,6.687,21.132
	c-3.731,4.948-9.6,3.427-15.577,3.438c-10.965,0.019-21.875,0.074-32.818,0.608c-19.37,0.632-38.711,2.111-58.076,2.533
	c-5.105,0.111-10.201-0.024-15.305-0.039c-2.985-0.008-7.61,1.042-10.415-0.25C207.705,60.554,215.171,49.642,219.094,47.267z"/>
<path d="M464.302,13.286c-10.689-7.633-25.868,1.322-34.018,8.72C417.695,33.434,405.388,45.95,393.75,58.36
	c-0.167,0.177-0.252,0.381-0.305,0.591c-9.644,7.855-18.945,16.298-25.979,26.577c-6.274,9.169-7.453,20.56-8.606,31.311
	c-0.656,6.122-1.789,13.63,1.722,19.141c0.837,1.314,2.358,1.962,3.88,1.579c9.163-2.302,18.124-8.871,26.877-12.661
	c8.259-3.575,11.982-7.716,18.143-14.177c14.779-15.497,29.886-31.484,43.378-48.404C462.427,50.319,483.216,26.793,464.302,13.286z
	 M365.558,130.002c-0.825-3.464-0.709-8.762-0.231-13.964c1.476,0.637,2.976,1.256,4.222,2.382c1.943,1.757,3.66,4.863,3.971,7.464
	c0.005,0.051,0.022,0.094,0.031,0.143C370.907,127.537,368.242,128.984,365.558,130.002z M383.787,120.549
	c-1.769,0.743-3.553,1.682-5.346,2.684c-1.011-3.822-3.627-7.452-6.804-9.566c-0.926-0.616-3.507-1.816-5.799-2.217
	c0.548-4.201,1.234-7.928,1.722-10.003c0.753-3.201,1.986-6.145,3.499-8.93c5.628,0.403,10.751,1.815,15.458,5.526
	c3.929,3.098,6.342,7.533,6.867,12.499C394.101,117.331,389.386,118.196,383.787,120.549z M433.977,73.009
	c-10.518,11.832-20.989,23.715-31.822,35.271c-1.1,1.173-2.12,2.171-3.117,3.1c0.608-7.476-4.659-15.598-10.903-18.896
	c-3.649-1.927-9.2-5.131-13.85-5.087c3.271-4.498,7.266-8.551,11.374-12.418C398.924,62.492,416.15,50.3,426.332,34.81
	c1.079-0.762,2.127-1.328,3.111-1.548c4.955-1.11,13.582,10.045,15.886,13.72C452.199,57.942,440.569,65.593,433.977,73.009z
	 M454.91,50.351c-1.165-3.57-3.341-6.972-5.471-9.642c-3.671-4.599-9.459-11.924-15.261-14.537
	c5.82-4.247,13.033-9.113,20.174-8.875C472.007,17.886,463.114,36.889,454.91,50.351z"/>
<path d="M243.748,167.511c-1.077-1.5-3.065-1.565-4.13,0c-2.626,3.855-2.236,10.952-2.537,15.537
	c-0.29,4.448-0.322,10.803,2.182,14.648c1.127,1.729,4.099,1.154,4.044-1.095c-0.128-5.141-0.196-10.242,0.225-15.365
	C243.878,177.051,246.45,171.273,243.748,167.511z"/>
<path d="M246.074,156.144c0.128-1.179,1.207-2.934,1.593-4.088c0.946-2.822,1.987-5.596,2.779-8.467
	c1.051-3.812,3.74-8.604,1.812-12.341c-0.982-1.907-3.706-1.662-4.75,0c-2.588,4.124-2.867,9.865-4.066,14.513
	c-0.807,3.13-3.012,7.985-1.289,11.141c0.593,1.086,1.879,1.215,2.903,0.761C245.713,157.371,245.999,156.83,246.074,156.144z"/>
<path d="M255.381,122.824c2.69-2.971,3.866-6.238,5.448-9.852c2.02-4.617,4.424-9.055,6.553-13.618
	c0.617-1.322,0.612-2.94-0.518-4.015c-0.172-0.163-0.344-0.327-0.516-0.49c-0.768-0.731-1.988-0.936-2.919-0.377
	c-3.895,2.34-5.592,10.201-7.257,14.197c-0.997,2.393-1.483,4.873-2.33,7.309c-0.8,2.3-1.675,3.716-1.117,6.145
	C252.987,123.261,254.593,123.696,255.381,122.824z"/>
<path d="M146.801,162.514c3.736,9.107,6.682,18.204,9.607,27.579c0.614,1.97,3.928,2.317,4.348,0
	c1.083-5.961-0.904-12.475-2.993-18.006c-1.481-3.925-2.751-11.842-7.29-13.245C148.474,158.225,145.924,160.377,146.801,162.514z"
	/>
<path d="M132.496,130.082c-1.88-0.589-3.875,1.36-3.257,3.258c0.637,1.957,1.695,2.907,3.008,4.434
	c1.539,1.79,2.97,3.837,4.374,5.741c1.039,1.408,1.612,3.091,2.773,4.419c1.347,1.539,2.896,2.361,3.749,4.326
	c0.806,1.856,3.983,0.926,3.821-1.035c-0.135-1.624-0.527-3.202-1.388-4.613c-1.215-1.993-2.311-4.063-3.532-6.05
	C139.733,136.804,136.926,131.468,132.496,130.082z"/>
<path d="M338.776,172.869c-2.556,2.478-3.85,6.426-4.768,9.785c-1.208,4.418-2.441,9.399-1.261,13.919
	c0.516,1.974,3.132,1.721,3.757,0c1.432-3.947,2.413-8.2,3.53-12.257c0.887-3.228,1.184-6.417,1.855-9.634
	C342.26,172.897,340.163,171.524,338.776,172.869z"/>
<path d="M351.853,144.339c-2.39,2.932-3.736,5.636-5.407,9.009c-1.502,3.033-4.289,6.346-2.83,9.893
	c0.634,1.543,2.715,2.089,3.684,0.482c1.712-2.838,3.74-5.566,5.264-8.505c0.696-1.341,1.259-2.764,2.136-4.002
	c0.957-1.352,1.832-2.209,2.437-3.802C358.231,144.522,353.818,141.927,351.853,144.339z"/>
<path d="M316.969,107.601c-2.264-3.531-2.853-15.252-7.201-16.467c-4.945-1.382-5.467,6.328-5.933,9.725
	c-0.723,5.271-2.395,10.065-6.131,13.986c-3.191,3.348-7.396,5.595-10.607,8.93c-0.833,0.865-1.32,2.251-0.908,3.436
	c1.318,3.784,2.68,2.947,5.908,4.411c4.596,2.085,9.231,4.856,12.098,9.22c2.725,4.148,2.611,8.926,4.462,13.355
	c1.07,2.557,4.911,3.833,6.471,0.846c2.544-4.868,2.48-11.066,4.362-16.28c2.331-6.462,7.041-10.103,10.299-15.79
	c0.747-1.305,0.636-3.32-0.563-4.362C324.975,114.92,320.104,112.489,316.969,107.601z M314.059,132.975
	c-1.142,2.558-1.711,5.413-2.236,8.273c-0.831-2.353-1.917-4.645-3.803-6.863c-2.51-2.95-5.905-5.702-9.327-7.56
	c-0.826-0.448-1.84-0.973-2.759-1.224c-0.072-0.029-0.143-0.057-0.215-0.086c0.293-0.207,0.44-0.326,0.302-0.25
	c1.821-1.004,3.771-2.977,5.279-4.412c2.461-2.344,4.367-4.743,5.862-7.794c0.822-1.68,1.416-3.284,1.851-4.858
	c0.255,0.504,0.503,1.009,0.798,1.51c3.262,5.555,7.506,8.415,12.11,12.14C319.26,125.517,316.049,128.523,314.059,132.975z"/>
<path d="M168.539,123.421c4.596,2.085,9.231,4.856,12.098,9.22c2.725,4.149,2.611,8.926,4.462,13.355
	c1.07,2.558,4.911,3.833,6.471,0.846c2.544-4.868,2.48-11.066,4.362-16.28c2.331-6.461,7.041-10.103,10.299-15.79
	c0.747-1.305,0.636-3.32-0.563-4.362c-4.252-3.691-9.123-6.122-12.258-11.01c-2.264-3.531-2.853-15.252-7.201-16.467
	c-4.945-1.382-5.467,6.328-5.933,9.725c-0.723,5.271-2.395,10.065-6.131,13.986c-3.191,3.348-7.396,5.595-10.607,8.93
	c-0.833,0.865-1.32,2.251-0.908,3.436C163.949,122.793,165.311,121.956,168.539,123.421z M172.462,117.064
	c1.821-1.004,3.771-2.977,5.279-4.412c2.461-2.344,4.367-4.743,5.862-7.794c0.822-1.68,1.416-3.284,1.85-4.858
	c0.255,0.504,0.503,1.009,0.798,1.51c3.262,5.555,7.506,8.415,12.11,12.14c-2.661,3.667-5.872,6.674-7.861,11.125
	c-1.142,2.558-1.711,5.413-2.236,8.273c-0.831-2.353-1.917-4.645-3.803-6.864c-2.51-2.95-5.905-5.702-9.327-7.56
	c-0.826-0.448-1.84-0.973-2.759-1.223c-0.071-0.029-0.143-0.057-0.215-0.086C172.453,117.107,172.6,116.988,172.462,117.064z"/>
<path d="M83.767,164.523c0.747-1.305,0.636-3.32-0.563-4.362c-4.252-3.691-9.123-6.122-12.258-11.01
	c-2.264-3.531-2.853-15.252-7.201-16.467c-4.945-1.382-5.467,6.328-5.933,9.725c-0.723,5.271-2.395,10.065-6.131,13.986
	c-3.191,3.348-7.396,5.595-10.607,8.93c-0.833,0.865-1.32,2.251-0.908,3.436c1.318,3.784,2.68,2.947,5.908,4.411
	c4.596,2.085,9.231,4.856,12.098,9.22c2.725,4.148,2.611,8.926,4.462,13.355c1.07,2.558,4.911,3.833,6.471,0.846
	c2.544-4.868,2.481-11.066,4.362-16.28C75.799,173.851,80.509,170.21,83.767,164.523z M68.036,174.526
	c-1.142,2.558-1.711,5.413-2.236,8.273c-0.831-2.353-1.917-4.645-3.803-6.863c-2.51-2.95-5.905-5.702-9.327-7.56
	c-0.825-0.448-1.84-0.973-2.759-1.224c-0.072-0.029-0.143-0.057-0.215-0.086c0.293-0.207,0.44-0.326,0.302-0.25
	c1.821-1.004,3.771-2.977,5.279-4.412c2.461-2.344,4.367-4.743,5.862-7.794c0.822-1.68,1.416-3.284,1.85-4.858
	c0.255,0.504,0.503,1.009,0.798,1.51c3.262,5.555,7.506,8.415,12.11,12.14C73.236,167.068,70.025,170.074,68.036,174.526z"/>
<path d="M409.911,169.38c-2.264-3.531-2.853-15.252-7.201-16.467c-4.945-1.382-5.467,6.328-5.933,9.725
	c-0.723,5.271-2.395,10.065-6.131,13.986c-3.191,3.348-7.396,5.595-10.607,8.93c-0.833,0.865-1.32,2.251-0.908,3.436
	c1.318,3.784,2.68,2.947,5.908,4.411c4.596,2.085,9.231,4.856,12.098,9.22c2.725,4.148,2.611,8.926,4.462,13.355
	c1.07,2.558,4.911,3.833,6.471,0.846c2.543-4.868,2.48-11.066,4.362-16.28c2.331-6.462,7.041-10.103,10.299-15.79
	c0.747-1.305,0.636-3.32-0.563-4.362C417.918,176.699,413.046,174.268,409.911,169.38z M407.001,194.754
	c-1.143,2.558-1.711,5.413-2.236,8.273c-0.831-2.353-1.917-4.645-3.804-6.863c-2.51-2.95-5.905-5.702-9.327-7.56
	c-0.825-0.448-1.84-0.973-2.759-1.224c-0.072-0.029-0.143-0.057-0.215-0.086c0.293-0.207,0.44-0.326,0.302-0.25
	c1.821-1.004,3.771-2.977,5.279-4.412c2.461-2.344,4.367-4.743,5.862-7.794c0.822-1.68,1.416-3.284,1.851-4.858
	c0.255,0.504,0.503,1.009,0.798,1.51c3.262,5.555,7.506,8.415,12.11,12.14C412.202,187.296,408.991,190.303,407.001,194.754z"/>
<g>
</g>
<g>
</g>
<g>
</g>
<g>
</g>
<g>
</g>
<g>
</g>
<g>
</g>
<g>
</g>
<g>
</g>
<g>
</g>
<g>
</g>
<g>
</g>
<g>
</g>
<g>
</g>
<g>
</g>
</svg>
