<?xml version="1.0" encoding="iso-8859-1"?>
<!-- Generator: Adobe Illustrator 19.0.0, SVG Export Plug-In . SVG Version: 6.00 Build 0)  -->
<svg version="1.1" id="Layer_1" xmlns="http://www.w3.org/2000/svg" xmlns:xlink="http://www.w3.org/1999/xlink" x="0px" y="0px"
	 viewBox="0 0 499.2 499.2" style="enable-background:new 0 0 499.2 499.2;" xml:space="preserve">
<path style="fill:#8C4402;" d="M499.2,297.2l-52-40H209.6c-19.2-32-56-56-97.6-56C50.4,201.2,0,239.6,0,302s50.4,124,112,124
	c41.6,0,85.6-25.6,105.6-57.6h229.6L499.2,297.2z"/>
<path style="fill:#FFAD40;" d="M499.2,297.2l-52-56H209.6c-19.2-32-56-56-97.6-56C50.4,185.2,0,236.4,0,298s50.4,112,112,112
	c41.6,0,78.4-25.6,97.6-57.6h236.8L499.2,297.2z"/>
<path style="fill:#FFA33E;" d="M0,298.8c0,61.6,50.4,112,112,112c41.6,0,78.4-25.6,97.6-57.6h236.8l52-56l-52-56H209.6
	c-19.2-32-56-56-97.6-56"/>
<path style="fill:#F29233;" d="M0,298.8C0,360.4,50.4,410,112,410c41.6,0,78.4-24.8,97.6-56.8h236.8l52-56l-52-56H209.6"/>
<g>
	<path style="fill:#CE6D0D;" d="M0,298.8c0,61.6,50.4,112,112,112c41.6,0,78.4-25.6,97.6-57.6h236.8l52-56"/>
	<path style="fill:#CE6D0D;" d="M112,410.8c41.6,0,78.4-23.2,97.6-57.6"/>
</g>
<g>
	<polyline style="fill:#E2821A;" points="209.6,353.2 447.2,353.2 499.2,297.2 	"/>
</g>
<ellipse style="fill:#492E15;" cx="42.4" cy="298.8" rx="19.2" ry="32.8"/>
<path d="M23.2,298.8c0,18.4,8.8,32.8,19.2,32.8s19.2-14.4,19.2-32.8"/>
<g>
	<path style="fill:#BF6104;" d="M209.6,354.8L209.6,354.8L209.6,354.8L209.6,354.8z"/>
	<polygon style="fill:#BF6104;" points="447.2,353.2 447.2,353.2 425.6,330.8 411.2,345.2 397.6,331.6 384,345.2 370.4,331.6 
		356.8,345.2 343.2,331.6 328.8,345.2 315.2,331.6 301.6,345.2 288,331.6 274.4,345.2 260.8,331.6 246.4,345.2 232.8,330.8 
		210.4,353.2 	"/>
</g>
<polygon style="fill:#FFAD40;" points="216.8,249.2 440,249.2 241.6,258.8 "/>
<polygon style="fill:#FFA33E;" points="447.2,255.6 480,291.6 443.2,277.2 "/>
<path style="fill:#BF6104;" d="M40.8,337.2c12,24,39.2,45.6,71.2,45.6s58.4-21.6,71.2-45.6H40.8z"/>
<g>
	<path style="fill:#F29233;" d="M321.6,185.2c0,4.8-3.2,8-8,8l0,0c-4.8,0-8-3.2-8-8v-104c0-4.8,3.2-8,8-8l0,0c4.8,0,8,3.2,8,8V185.2
		z"/>
	<path style="fill:#F29233;" d="M384.8,197.2c-3.2,3.2-8.8,3.2-12,0l0,0c-3.2-3.2-3.2-8.8,0-12l69.6-69.6c3.2-3.2,8.8-3.2,12,0l0,0
		c3.2,3.2,3.2,8.8,0,12L384.8,197.2z"/>
	<path style="fill:#F29233;" d="M242.4,197.2c3.2,3.2,8.8,3.2,12,0l0,0c3.2-3.2,3.2-8.8,0-12l-69.6-69.6c-3.2-3.2-8.8-3.2-12,0l0,0
		c-3.2,3.2-3.2,8.8,0,12L242.4,197.2z"/>
</g>
<g>
</g>
<g>
</g>
<g>
</g>
<g>
</g>
<g>
</g>
<g>
</g>
<g>
</g>
<g>
</g>
<g>
</g>
<g>
</g>
<g>
</g>
<g>
</g>
<g>
</g>
<g>
</g>
<g>
</g>
</svg>
