<?xml version="1.0" encoding="iso-8859-1"?>
<!-- Generator: Adobe Illustrator 19.0.0, SVG Export Plug-In . SVG Version: 6.00 Build 0)  -->
<svg version="1.1" id="Layer_1" xmlns="http://www.w3.org/2000/svg" xmlns:xlink="http://www.w3.org/1999/xlink" x="0px" y="0px"
	 viewBox="0 0 512 512" style="enable-background:new 0 0 512 512;" xml:space="preserve">
<path style="fill:#FAEBC8;" d="M435.574,350.063L8.017,367.165v34.205l427.557,17.102h17.102c9.446,0,17.102-7.656,17.102-17.102
	v-34.205c0-9.446-7.656-17.102-17.102-17.102H435.574z"/>
<path style="fill:#FF6464;" d="M452.676,418.472c9.445,0,17.102-7.658,17.102-17.102v-34.205c0-9.446-7.658-17.102-17.102-17.102
	h-17.102v68.409H452.676z"/>
<path style="fill:#F5DCB4;" d="M392.818,351.773v30.187c0,4.776-3.912,8.626-8.687,8.55L8.017,384.539v16.831l427.557,17.102
	v-68.409L392.818,351.773z"/>
<path d="M452.676,342.046h-17.102c-0.107,0-0.214,0.002-0.321,0.006L7.696,359.155C3.397,359.327,0,362.863,0,367.165v34.205
	c0,4.302,3.397,7.838,7.696,8.01l427.557,17.102c0.107,0.004,0.214,0.006,0.321,0.006h17.102c13.851,0,25.119-11.268,25.119-25.119
	v-34.205C477.795,353.314,466.527,342.046,452.676,342.046z M16.033,374.867l411.535-16.461c-0.001,0.069-0.011,0.138-0.011,0.207
	v51.307c0,0.071,0.009,0.138,0.011,0.207l-18.182-0.727v-25.134c0-4.427-3.589-8.017-8.017-8.017c-4.427,0-8.017,3.589-8.017,8.017
	v24.493L16.033,393.667V374.867z M461.762,401.37c0,5.01-4.076,9.086-9.086,9.086h-9.112c0.012-0.177,0.027-0.354,0.027-0.534
	v-51.307c0-0.181-0.015-0.357-0.027-0.534h9.112c5.01,0,9.086,4.076,9.086,9.086V401.37z"/>
<path d="M479.473,241.57c-17.641-36.224-35.882-73.68-35.882-148.042c0-4.427-3.589-8.017-8.017-8.017
	c-4.427,0-8.017,3.589-8.017,8.017c0,78.058,19.064,117.204,37.5,155.061c15.896,32.64,30.909,63.469,30.909,118.576
	c0,4.427,3.589,8.017,8.017,8.017c4.427,0,8.017-3.589,8.017-8.017C512,308.362,496.2,275.918,479.473,241.57z"/>
<path d="M465.145,145.941c0.558,4.01,3.992,6.913,7.93,6.913c0.368,0,0.74-0.026,1.115-0.078c4.386-0.609,7.445-4.659,6.836-9.045
	c-0.75-5.392-1.377-11.003-1.864-16.68c-0.378-4.41-4.255-7.675-8.672-7.303c-4.411,0.378-7.681,4.261-7.303,8.672
	C463.697,134.377,464.355,140.271,465.145,145.941z"/>
<path d="M477.901,171.296c-4.275,1.154-6.803,5.555-5.65,9.83c3.9,14.447,8.953,28.42,15.9,43.972
	c1.332,2.981,4.258,4.749,7.325,4.749c1.092,0,2.203-0.224,3.264-0.699c4.043-1.805,5.856-6.547,4.051-10.59
	c-6.597-14.77-11.383-27.993-15.06-41.613C486.576,172.671,482.179,170.14,477.901,171.296z"/>
<path d="M403.862,181.2c0.966,3.573,4.202,5.926,7.734,5.926c0.692,0,1.397-0.09,2.097-0.28c4.274-1.155,6.802-5.557,5.647-9.832
	c-1.467-5.424-2.782-11.027-3.911-16.651c-0.871-4.341-5.1-7.153-9.437-6.283c-4.342,0.871-7.154,5.096-6.283,9.437
	C400.907,169.487,402.305,175.436,403.862,181.2z"/>
<path d="M415.948,216.315c4.782,11.49,9.928,22.057,14.905,32.275c10.517,21.596,20.451,41.994,26.106,68.918
	c0.793,3.777,4.125,6.371,7.837,6.371c0.546,0,1.101-0.056,1.656-0.173c4.333-0.91,7.108-5.161,6.197-9.493
	c-6.062-28.865-16.9-51.121-27.382-72.643c-4.875-10.01-9.916-20.361-14.517-31.416c-1.702-4.087-6.395-6.022-10.482-4.32
	C416.181,207.534,414.248,212.227,415.948,216.315z"/>
</svg>
