<svg viewBox="0 50 506 506" xmlns:xlink="http://www.w3.org/1999/xlink" height="506pt" width="506pt" xmlns="http://www.w3.org/2000/svg"><defs><path d="M253 87.35c10.58-.26 20.66 1.7 31.03 3.52 19.47 4.24 38.09 12.15 54.5 23.48 31.72 21.45 55.89 53.36 69.36 89.09 6.32 15.56 9.46 31.9 11.26 48.53.95 12.66.25 25.2-2.22 37.66-2.05 13.17-6.43 25.62-11.82 37.76-2.98 6.44-6.72 12.47-10.04 18.77-6.71 11.25-14.93 21.65-23.31 31.7-16.56 18.03-34.4 34.49-54.73 48.23-19.12 13.7-40.55 24.36-62.73 32.14a54.754 54.754 0 0 1-8.61 2.6c-.23-10.39.04-20.78-.07-31.17-4.13-1.66-8.08-1.23-12.66-1.88-9.86-.91-19.24-3.4-28.78-5.95-29.38-8.84-55.92-25.73-76.94-48.01-8.3-9.25-15.76-19.1-22.3-29.67-9.68-16.54-16.78-34.5-20.51-53.32-1.41-8.88-3.11-17.93-3.03-26.83.02-6.88-.18-13.81.37-20.67.78-6.91 1.8-13.84 3.1-20.68 7.04-32.76 24.09-63.33 48.16-86.64 11.57-11.63 24.78-20.78 38.98-28.88 12.89-7.07 26.91-12.14 41.16-15.63 13.17-2.65 26.36-4.63 39.83-4.15z" id="a"/><path d="M251.51 144.33c13.39 19.27 22.33 41.38 25.09 64.74 1.52 11.06.84 22.71.61 33.86 3.17-3.11 6.04-6.48 9.06-9.73 11.87-11.83 25.82-21.4 41.6-27.23 5.54-1.93 10.37-4.26 16.34-4.56.84 9.76-.68 19.73-4.24 28.84-3.77 10.28-10.39 19.26-16.5 28.34-4.28 6.29-9.51 11.71-14.93 17.01-.6.79-2.8 2.47-1.92 3.57 3.03.59 6.3.26 9.39.56 19.21 1.98 38 5.67 55.93 13.04-1.16 3.11-5.14 4.72-7.71 6.62-20.13 13.56-44.19 21.27-68.4 22.41 1.16 2.53 2.62 4.87 4.11 7.21 3.97 6.39 6.15 13.79 5.45 21.35-15.98.32-32.08-5.95-43.01-17.74-4.08-4.01-6.82-8.81-10.09-13.44-3.09 4.67-5.65 9.45-9.68 13.43-10.65 11.75-27.14 18.67-42.97 17.82-.13-4.4.23-8.74 1.67-12.92 1.77-5.48 4.82-9.96 7.65-14.9-5.03-1.35-10.09-.92-15.17-1.74-22.26-3.67-43.49-12.24-61.34-26.17 1.26-.8 2.5-1.6 3.88-2.17 7.56-2.95 15.32-5.26 23.16-7.35 12.95-3.3 25.95-4.37 39.19-5.66-5.23-5.94-10.95-11.15-15.74-17.48-4.35-5.74-8.53-11.66-12.26-17.82-4.09-7.09-8.2-14.81-9.8-22.89-1.48-6.29-1.85-12.7-1.42-19.14 4.86.2 9.13 1.97 13.65 3.55 13.79 4.71 26.64 12.03 37.79 21.41 5.67 4.96 10.66 10.56 15.83 15.83-.27-9.96-.72-20.07-.1-30.03.57-5.37 1.32-10.85 2.28-16.16 3.02-15.35 8.9-29.79 16.6-43.37 1.87-3.19 3.55-6.29 6-9.09z" id="b"/></defs><g stroke-width="10pt"><use stroke="#04c300" xlink:href="#a"/><use stroke="#fff" xlink:href="#b"/></g><use xlink:href="#a" fill="#04c300"/><use xlink:href="#b" fill="#fff"/></svg>
