<?xml version="1.0" encoding="iso-8859-1"?>
<!-- Generator: Adobe Illustrator 19.0.0, SVG Export Plug-In . SVG Version: 6.00 Build 0)  -->
<svg version="1.1" id="Capa_1" xmlns="http://www.w3.org/2000/svg" xmlns:xlink="http://www.w3.org/1999/xlink" x="0px" y="0px"
	 viewBox="0 0 512 512" style="enable-background:new 0 0 512 512;" xml:space="preserve">
<g>
	<path style="fill:#3F5C6C;" d="M512,35.31v317.793c-0.057,19.478-15.833,35.253-35.31,35.31H364.138L256,512L147.862,388.414H35.31
		C15.833,388.357,0.057,372.581,0,353.103V35.31C0.057,15.833,15.833,0.057,35.31,0H476.69C496.167,0.057,511.943,15.833,512,35.31z
		"/>
	<path style="fill:#F29C1F;" d="M365.021,245.407c-0.011,11.291-2.106,22.484-6.179,33.015
		c-15.2,35.845-48.599,60.666-87.305,64.883c-5.154,0.639-10.343,0.963-15.537,0.971c-60.204,0-109.021-44.226-109.021-98.869
		c-0.038-10.204,1.725-20.334,5.208-29.926c8.535-23.512,25.532-42.996,47.669-54.643c2.125,21.997,13.769,41.962,31.868,54.643
		c3.392,2.52,6.962,4.792,10.681,6.797c-1.589-2.295-3.09-4.59-4.59-6.797c-11.835-18.505-18.143-40.004-18.185-61.97
		c-0.015-0.414,0.015-0.828,0.088-1.236c0.27-22.793,7.273-44.998,20.127-63.823c12.917-18.911,30.49-34.173,51.023-44.314
		c-3.479,10.381-5.499,21.195-6.003,32.132c-0.088,1.501-0.088,3.001-0.088,4.59c0.324,33.789,14.99,65.848,40.342,88.188
		c-0.001,0.024,0.009,0.046,0.025,0.063c0.017,0.017,0.039,0.026,0.063,0.025c11.55,9.441,21.402,20.786,29.131,33.545
		C361.346,215.833,365.014,230.505,365.021,245.407z"/>
</g>
<g>
</g>
<g>
</g>
<g>
</g>
<g>
</g>
<g>
</g>
<g>
</g>
<g>
</g>
<g>
</g>
<g>
</g>
<g>
</g>
<g>
</g>
<g>
</g>
<g>
</g>
<g>
</g>
<g>
</g>
</svg>
