<?xml version="1.0" standalone="no"?>
<!DOCTYPE svg PUBLIC "-//W3C//DTD SVG 20010904//EN"
 "http://www.w3.org/TR/2001/REC-SVG-20010904/DTD/svg10.dtd">
<svg version="1.0" xmlns="http://www.w3.org/2000/svg"
 width="1280.000000pt" height="1280.000000pt" viewBox="0 0 1280.000000 1280.000000"
 preserveAspectRatio="xMidYMid meet">
<g transform="translate(0.000000,1280.000000) scale(0.100000,-0.100000)"
fill="#04c300" stroke="none">
<path d="M6313 12037 c-395 -782 -664 -1616 -812 -2522 -290 -1768 -83 -3611
582 -5180 95 -224 302 -645 317 -645 16 0 243 468 333 685 264 636 446 1272
562 1964 293 1753 96 3582 -553 5147 -102 246 -326 714 -342 714 -3 0 -42 -73
-87 -163z"/>
<path d="M350 8806 c0 -18 89 -277 143 -416 162 -419 411 -915 647 -1290 944
-1502 2357 -2697 3935 -3330 268 -107 660 -239 673 -226 8 8 -34 138 -108 337
-286 765 -708 1501 -1244 2169 -303 378 -664 756 -1036 1085 -792 700 -1750
1264 -2680 1578 -259 88 -330 107 -330 93z"/>
<path d="M12410 8807 c-103 -29 -473 -156 -604 -208 -505 -202 -966 -444
-1436 -754 -543 -360 -1002 -742 -1459 -1219 -781 -814 -1370 -1735 -1744
-2726 -72 -190 -123 -348 -115 -355 7 -7 177 44 373 112 637 221 1319 575
1905 988 1360 958 2427 2306 2988 3776 70 183 135 376 130 387 -2 5 -19 4 -38
-1z"/>
<path d="M2145 3709 c-607 -39 -1206 -173 -1725 -384 -210 -85 -251 -105 -245
-114 9 -15 148 -94 320 -181 1325 -673 3014 -794 4440 -318 227 76 535 202
535 219 0 12 -168 109 -337 193 -677 339 -1418 533 -2238 586 -172 11 -574 11
-750 -1z"/>
<path d="M9885 3709 c-799 -52 -1548 -249 -2218 -585 -169 -84 -337 -181 -337
-193 0 -4 42 -26 93 -49 878 -385 1902 -533 2927 -421 703 77 1365 269 1955
569 172 87 311 166 320 181 6 9 -35 29 -245 114 -529 215 -1117 345 -1745 385
-180 11 -570 11 -750 -1z"/>
<path d="M5333 2234 c-731 -79 -1469 -405 -2043 -901 -141 -121 -347 -334
-450 -463 -93 -117 -176 -238 -168 -245 8 -8 293 13 413 31 665 96 1309 382
1860 828 218 177 488 467 650 699 l47 67 -94 -1 c-51 -1 -148 -7 -215 -15z"/>
<path d="M7205 2183 c162 -232 432 -522 650 -699 545 -440 1174 -724 1832
-824 135 -20 432 -44 441 -36 8 8 -73 126 -168 246 -108 136 -334 366 -480
489 -512 429 -1140 728 -1770 841 -147 26 -372 50 -473 50 l-79 0 47 -67z"/>
</g>
</svg>
