<?xml version="1.0" encoding="iso-8859-1"?>
<!-- Generator: Adobe Illustrator 19.0.0, SVG Export Plug-In . SVG Version: 6.00 Build 0)  -->
<svg version="1.1" id="Capa_1" xmlns="http://www.w3.org/2000/svg" xmlns:xlink="http://www.w3.org/1999/xlink" x="0px" y="0px"
	 viewBox="0 0 512 512" style="enable-background:new 0 0 512 512;" xml:space="preserve">
<path style="fill:#40E464;" d="M492.872,165.36c0,91.325-74.035,165.36-165.36,165.36c-31.268,0-60.514-8.677-85.448-23.752
	c-47.898-28.969-79.912-81.551-79.912-141.607c0-10.753,1.022-21.271,2.992-31.449C179.827,57.629,246.941,0,327.514,0
	C418.837,0,492.872,74.035,492.872,165.36z"/>
<path style="fill:#11BF32;" d="M242.854,305.381l-0.788,1.586c-47.898-28.969-79.912-81.551-79.912-141.607
	c0-10.753,1.022-21.271,2.992-31.449c10.242,0.458,17.577,1.501,17.971,1.554l4.833,0.692c11.094,1.586,15.565,15.182,7.591,23.049
	l-6.547,6.452c28.085,13.84,49.101,34.313,59.194,58.257C258.759,249.008,256.918,277.168,242.854,305.381z"/>
<path style="fill:#009AF2;" d="M230.872,492.375v11.383c0,4.553-3.688,8.241-8.241,8.241H31.656c-4.553,0-8.241-3.688-8.241-8.241
	v-11.383c0-47.254,31.596-87.133,74.822-99.639c3.956-1.154,8.005-2.071,12.146-2.74c0,0.01,0,0.01,0.01,0
	c5.45-0.886,11.044-1.35,16.751-1.35c5.8,0,11.476,0.474,17.008,1.401c0,0,0,0,0.01,0c4.152,0.67,8.211,1.607,12.177,2.771
	c16.905,4.945,32.028,14.083,44.154,26.208C219.263,437.796,230.872,463.726,230.872,492.375z"/>
<path style="fill:#FF9E5C;" d="M127.286,429.974L127.286,429.974c-16.043,0-29.049-13.006-29.049-29.049v-22.272h58.097v22.272
	C156.335,416.969,143.329,429.974,127.286,429.974z"/>
<path style="fill:#0D5784;" d="M160.488,171.357l12.551-12.383c3.156-3.114,1.172-8.492-3.251-8.805
	c-8.951-0.634-22.036-0.988-34.266,0.821c-15.526,2.297-31.744,4.281-51.316,15.389C-5.141,217.086,34.941,292.57,34.941,292.57
	l50.748,35.682l142.875-29.996C261.214,232.764,211.617,187.764,160.488,171.357z"/>
<g>
	<circle style="fill:#FF9E5C;" cx="40.439" cy="311.19" r="21.311"/>
	<circle style="fill:#FF9E5C;" cx="214.059" cy="311.19" r="21.311"/>
</g>
<path style="fill:#FFC197;" d="M196.553,285.363c-48.97,11.046-80.021-6.504-80.021-6.504v12.833c0,3.179-2.857,5.606-5.993,5.089
	c-23.052-3.805-40.696-14.981-52.52-25.11v50.147c0,38.075,30.292,69.808,68.363,70.294c38.675,0.493,70.171-30.711,70.171-69.272
	L196.553,285.363L196.553,285.363z"/>
<path style="fill:#07496B;" d="M147.404,352.605c-2.566-3.409-7.41-4.091-10.819-1.525c-3.696,2.783-7.061,3.624-9.873,3.553
	c-2.812,0.071-6.177-0.77-9.873-3.553c-3.409-2.566-8.254-1.884-10.819,1.525c-2.567,3.408-1.884,8.253,1.525,10.819
	c6.506,4.899,12.927,6.661,18.667,6.661c0.169,0,0.333-0.011,0.501-0.014c0.168,0.003,0.332,0.014,0.501,0.014
	c5.74,0,12.161-1.763,18.667-6.661C149.288,360.858,149.971,356.013,147.404,352.605z"/>
<g>
	<path style="fill:#006FD3;" d="M65.745,480.837V512H50.292v-31.163c0-4.275,3.461-7.726,7.726-7.726S65.745,476.562,65.745,480.837
		z"/>
	<path style="fill:#006FD3;" d="M204.284,480.837V512h-15.453v-31.163c0-4.275,3.451-7.726,7.726-7.726
		C200.823,473.111,204.284,476.562,204.284,480.837z"/>
</g>
<g>
	<path style="fill:#07496B;" d="M98.897,330.378c-4.267,0-7.726-3.459-7.726-7.726v-1.839c0-4.267,3.459-7.726,7.726-7.726
		s7.726,3.459,7.726,7.726v1.839C106.624,326.919,103.164,330.378,98.897,330.378z"/>
	<path style="fill:#07496B;" d="M157.34,330.378c-4.267,0-7.726-3.459-7.726-7.726v-1.839c0-4.267,3.459-7.726,7.726-7.726
		s7.726,3.459,7.726,7.726v1.839C165.066,326.919,161.607,330.378,157.34,330.378z"/>
</g>
<path style="fill:#D7F4F9;" d="M296.651,238.147L296.651,238.147c-6.354,0-12.446-2.524-16.939-7.016l-35.945-35.946
	c-9.355-9.355-9.355-24.521,0.001-33.877c9.356-9.353,24.523-9.355,33.877,0.001l19.006,19.007l80.727-80.727
	c9.356-9.353,24.521-9.355,33.877,0.001c9.354,9.355,9.354,24.521,0,33.877l-97.666,97.665
	C309.096,235.623,303.004,238.147,296.651,238.147z"/>
<g>
</g>
<g>
</g>
<g>
</g>
<g>
</g>
<g>
</g>
<g>
</g>
<g>
</g>
<g>
</g>
<g>
</g>
<g>
</g>
<g>
</g>
<g>
</g>
<g>
</g>
<g>
</g>
<g>
</g>
</svg>
