<?xml version="1.0" encoding="iso-8859-1"?>
<!-- Generator: Adobe Illustrator 18.0.0, SVG Export Plug-In . SVG Version: 6.00 Build 0)  -->
<!DOCTYPE svg PUBLIC "-//W3C//DTD SVG 1.1//EN" "http://www.w3.org/Graphics/SVG/1.1/DTD/svg11.dtd">
<svg version="1.1" id="Capa_1" xmlns="http://www.w3.org/2000/svg" xmlns:xlink="http://www.w3.org/1999/xlink" x="0px" y="0px"
	 viewBox="0 0 55 55" style="enable-background:new 0 0 55 55;" xml:space="preserve">
<g>
	<path style="fill:#EAEAD6;" d="M7,4v15h23c3.314,0,6,2.686,6,6v3c0,3.314-2.686,6-6,6H10H9.592H7v17h45V4H7z"/>
	<rect x="52" y="4" style="fill:#BFBDA3;" width="3" height="47"/>
	<path style="fill:#BDC3C7;" d="M7,34H4c-2.2,0-4,1.8-4,4s1.8,4,4,4h3V34z"/>
	<path style="fill:#6D8C60;" d="M9.592,35.987H7v9.987c6.937-0.186,12.899-4.194,15.904-9.987H10H9.592z"/>
	<path style="fill:#6D8C60;" d="M7,9.025V19h15.923C19.914,13.21,13.936,9.211,7,9.025z"/>
	<path style="fill:#56704A;" d="M10,34H9.592H7v1.987h2.592H10h12.904c0.334-0.643,0.641-1.302,0.899-1.987H10z"/>
	<path style="fill:#C9C8B3;" d="M30,20.987h-1v15h1c3.314,0,6-2.686,6-6v-3C36,23.674,33.314,20.987,30,20.987z"/>
	<path style="fill:#6D8C60;" d="M52,43c-4.418,0-8,3.582-8,8h8V43z"/>
	<path style="fill:#6D8C60;" d="M44,4c0,4.418,3.582,8,8,8V4H44z"/>
	<path style="fill:#D1D4D1;" d="M4.751,19C2.127,19,0,21.127,0,23.751V32v2v4c0-2.2,1.8-4,4-4h2h3.592H10h19V19H4.751z"/>
	<path style="fill:#ECF0F1;" d="M30,19h-1v15h1c3.314,0,6-2.686,6-6v-3C36,21.686,33.314,19,30,19z"/>
	<path style="fill:#C9C8B3;" d="M22.904,35.987H29V34h-5.197C23.545,34.685,23.238,35.344,22.904,35.987z"/>
</g>
<g>
</g>
<g>
</g>
<g>
</g>
<g>
</g>
<g>
</g>
<g>
</g>
<g>
</g>
<g>
</g>
<g>
</g>
<g>
</g>
<g>
</g>
<g>
</g>
<g>
</g>
<g>
</g>
<g>
</g>
</svg>
